<?xml version="1.0" encoding="utf-8" ?><svg xmlns="http://www.w3.org/2000/svg" xmlns:xlink="http://www.w3.org/1999/xlink" width="1024" height="1024" viewBox="0 0 1024 1024"><path fill="#2EDBF3" d="M481.504 182.752C487.213 181.73 493.065 181.422 498.835 180.849C507.339 179.969 515.837 179.041 524.329 178.065C545.373 175.669 566.314 172.475 587.327 169.824C609.667 167.007 632.308 164.839 654.316 159.99C655.549 161.331 656.668 162.777 657.816 164.192C650.265 177.713 640.625 190.557 631.814 203.296C611.126 233.206 589.389 262.385 568.685 292.277C564.307 298.598 559.528 304.665 555.297 311.084C554.26 312.658 552.553 315.018 552.507 316.905C555.385 318.903 562.142 318.123 565.681 318.113L572.72 318.139C589.428 318.147 606.068 318.957 622.749 319.197C631.771 319.327 641.078 318.527 650.02 319.816L653.51 320.008C659.971 320.026 686.86 318.752 690.51 321.804C691.04 322.247 691.018 323.189 690.913 323.81C690.677 325.21 689.586 326.61 688.705 327.671C685 332.131 680.454 336.26 676.502 340.541C662.011 356.237 646.956 371.466 633.001 387.64L613.693 410.472C610.625 414.16 607.909 418.658 604.303 421.814C602.666 422.051 601.756 421.856 600.401 420.861C597.672 418.858 595.717 415.606 593.649 412.957C588.893 406.863 580.476 402.368 573.11 400.383C565.559 398.024 554.6 399.878 546.716 400.137C545.611 398.292 546.045 396.684 546.544 394.69C547.873 387.326 550.412 379.885 552.324 372.622C552.548 371.114 553.016 369.772 552.485 368.324C542.666 367.627 532.478 368.196 522.617 368.27C512.114 368.348 501.313 367.949 490.855 368.829C489.084 375.736 487.589 382.584 486.252 389.588C485.208 391.006 484.186 392.41 483.002 393.716C468.407 394.415 453.636 393.916 439.018 393.84C421.66 393.75 404.26 393.967 386.911 393.591C382.625 393.574 378.091 393.976 373.845 393.581C371.566 393.369 369.616 393.072 368.084 391.246C367.651 388.977 369.692 385.076 370.702 382.997C376.791 370.468 384.377 358.603 390.923 346.301C408.352 313.706 426.128 281.298 444.248 249.082C452.257 234.801 460.789 220.804 468.804 206.526C473.198 198.696 477.216 190.643 481.504 182.752Z"/><defs><linearGradient id="gradient_0" gradientUnits="userSpaceOnUse" x1="528.63617" y1="413.51422" x2="536.36719" y2="285.3526"><stop offset="0" stop-color="#516BF8"/><stop offset="1" stop-color="#2EDBF3"/></linearGradient></defs><path fill="url(#gradient_0)" d="M563.855 287.908C563.334 296.138 550.256 305.84 546.173 312.773C544.811 315.087 544.086 318.685 544.935 321.294C545.568 323.238 546.749 323.916 548.485 324.738C551.408 326.121 553.717 326.971 556.851 325.844C556.717 324.903 556.648 323.965 556.069 323.167C554.684 321.257 552.335 321.02 550.246 320.443C549.011 320.102 548.207 320.077 547.554 318.899C547.627 318.706 547.696 318.511 547.771 318.319C549.153 314.804 582.458 265.726 585.651 262.52C586.17 261.999 586.642 261.813 587.303 261.522C583.898 267.373 579.65 272.838 575.781 278.392L560.391 300.889C556.897 305.913 549.979 313.805 548.466 319.536C554.121 319.359 559.902 317.926 565.53 318.522L565.681 318.113L572.72 318.139C589.428 318.147 606.068 318.957 622.749 319.197C631.771 319.327 641.078 318.527 650.02 319.816L653.51 320.008C659.971 320.026 686.86 318.752 690.51 321.804C691.04 322.247 691.018 323.189 690.913 323.81C690.677 325.21 689.586 326.61 688.705 327.671C685 332.131 680.454 336.26 676.502 340.541C662.011 356.237 646.956 371.466 633.001 387.64L613.693 410.472C610.625 414.16 607.909 418.658 604.303 421.814C602.666 422.051 601.756 421.856 600.401 420.861C597.672 418.858 595.717 415.606 593.649 412.957C588.893 406.863 580.476 402.368 573.11 400.383C565.559 398.024 554.6 399.878 546.716 400.137C545.611 398.292 546.045 396.684 546.544 394.69C547.873 387.326 550.412 379.885 552.324 372.622C552.548 371.114 553.016 369.772 552.485 368.324C542.666 367.627 532.478 368.196 522.617 368.27C512.114 368.348 501.313 367.949 490.855 368.829C489.084 375.736 487.589 382.584 486.252 389.588C485.258 389.869 484.547 389.857 483.524 389.849C482.555 390.937 482.508 391.121 481.006 391.261C476.858 391.647 472.267 391.129 468.062 391.067C459.896 390.96 451.729 390.946 443.563 391.025L399.908 391.541C393.897 391.592 386.812 392.326 380.919 391.408L379.12 390.742C379.503 383.637 394.59 374.904 395.975 369.92C398.711 364.892 412.778 351.917 417.535 346.442C426.058 336.586 434.445 326.613 442.692 316.525C448.108 309.859 453.386 302.355 459.566 296.433C459.652 296.392 459.738 296.349 459.825 296.311C465.631 293.769 467.325 285.196 472.744 282.146L474.123 283.557C476.58 284.026 480.814 284.472 482.847 285.889C483.105 285.984 483.364 286.075 483.621 286.172C486.578 287.296 489.221 289.372 492.134 290.69C499.661 294.098 509.815 293.932 517.991 293.829C518.576 292.873 518.99 291.945 519.401 290.904C520.116 291.302 520.036 292.133 520.289 292.261C521.738 292.999 527.921 291.731 529.949 292.103C531.827 292.448 533.714 294.753 535.359 295.712C539.179 297.939 545.967 297.748 550.102 296.644C555.41 295.226 559.966 291.681 563.855 287.908Z"/><path fill="#2EDBF3" d="M565.681 318.113L572.72 318.139C589.428 318.147 606.068 318.957 622.749 319.197C631.771 319.327 641.078 318.527 650.02 319.816L653.51 320.008C655.21 321.137 656.789 322.437 658.801 322.921L663.561 323.041C661.976 324.055 660.997 323.872 659.142 323.94C657.997 325.365 656.904 327.6 656.971 329.448L658.895 329.209C655.045 331.63 573.456 341.337 562.711 342.68C561.557 334.465 558.147 327.613 555.104 320.009C552.866 319.97 550.689 319.775 548.466 319.536C554.121 319.359 559.902 317.926 565.53 318.522L565.681 318.113Z"/><path d="M572.72 318.139C589.428 318.147 606.068 318.957 622.749 319.197C631.771 319.327 641.078 318.527 650.02 319.816C648.669 319.913 647.641 319.885 646.482 320.651C644.352 322.06 640.968 321.982 638.474 322.055C631.979 322.401 625.104 321.719 618.585 321.526C606.346 321.17 594.105 320.931 581.862 320.808C581.203 320.237 579.819 320.109 578.955 319.773C576.821 318.942 574.967 318.503 572.72 318.139Z"/><path fill="#03343A" d="M650.02 319.816L653.51 320.008C655.21 321.137 656.789 322.437 658.801 322.921C652.04 322.477 645.204 322.855 638.474 322.055C640.968 321.982 644.352 322.06 646.482 320.651C647.641 319.885 648.669 319.913 650.02 319.816Z"/><path fill="#03343A" d="M548.466 319.536C554.121 319.359 559.902 317.926 565.53 318.522C567.491 319.12 569.394 319.78 571.301 320.533C565.926 320.626 560.476 320.254 555.104 320.009C552.866 319.97 550.689 319.775 548.466 319.536Z"/><path fill="#03343A" d="M565.681 318.113L572.72 318.139C574.967 318.503 576.821 318.942 578.955 319.773C579.819 320.109 581.203 320.237 581.862 320.808C578.392 320.953 574.78 320.636 571.301 320.533C569.394 319.78 567.491 319.12 565.53 318.522L565.681 318.113Z"/><path d="M653.51 320.008C659.971 320.026 686.86 318.752 690.51 321.804C691.04 322.247 691.018 323.189 690.913 323.81C690.677 325.21 689.586 326.61 688.705 327.671C685 332.131 680.454 336.26 676.502 340.541C662.011 356.237 646.956 371.466 633.001 387.64L613.693 410.472C610.625 414.16 607.909 418.658 604.303 421.814C602.666 422.051 601.756 421.856 600.401 420.861C597.672 418.858 595.717 415.606 593.649 412.957C588.893 406.863 580.476 402.368 573.11 400.383L574.96 399.169C587.608 402.783 595.401 409.921 603.283 420.216C613.48 406.342 626.881 394.781 637.114 380.948C640.347 378 643.189 374.234 646.06 370.917C655.591 360.448 665.523 350.119 674.36 339.052C676.806 337.518 686.614 326.638 689.43 323.785C680.78 323.138 672.24 322.848 663.561 323.041L658.801 322.921C656.789 322.437 655.21 321.137 653.51 320.008Z"/><defs><linearGradient id="gradient_1" gradientUnits="userSpaceOnUse" x1="498.89285" y1="357.27283" x2="531.31885" y2="390.28107"><stop offset="0" stop-color="black"/><stop offset="1" stop-color="#240336"/></linearGradient></defs><path fill="url(#gradient_1)" d="M488.813 365.517C496.191 365.863 503.68 365.535 511.069 365.49C526.038 365.34 541.009 365.394 555.978 365.653C555.747 367.127 555.467 368.563 555.143 370.019C553.869 370.643 553.331 371.707 552.324 372.622C552.548 371.114 553.016 369.772 552.485 368.324C542.666 367.627 532.478 368.196 522.617 368.27C512.114 368.348 501.313 367.949 490.855 368.829C489.084 375.736 487.589 382.584 486.252 389.588C485.258 389.869 484.547 389.857 483.524 389.849C485.511 381.795 487.112 373.636 488.813 365.517Z"/><path fill="#25A3F8" d="M645.564 367.553C649.896 362.448 655.155 358.676 659.715 353.881C663.582 349.814 666.707 344.744 670.792 340.947C671.865 339.95 672.984 339.488 674.36 339.052C665.523 350.119 655.591 360.448 646.06 370.917L645.564 367.553Z"/><path fill="#240336" d="M552.324 372.622C553.331 371.707 553.869 370.643 555.143 370.019C554.316 378.93 551.354 388.716 549.147 397.421C548.045 397.358 548.078 397.52 547.17 396.754L547.338 394.907L546.544 394.69C547.873 387.326 550.412 379.885 552.324 372.622Z"/><path fill="#240336" d="M546.544 394.69L547.338 394.907L547.17 396.754C548.078 397.52 548.045 397.358 549.147 397.421C553.167 397.944 557.431 397.573 561.492 397.642C566.114 397.722 570.433 398.331 574.96 399.169L573.11 400.383C565.559 398.024 554.6 399.878 546.716 400.137C545.611 398.292 546.045 396.684 546.544 394.69Z"/><path fill="#25A3F8" d="M637.114 380.948C637.31 380.204 637.553 379.661 637.914 378.97C640.247 374.503 642.129 371.254 645.564 367.553L646.06 370.917C643.189 374.234 640.347 378 637.114 380.948Z"/><path fill="#2EDBF3" d="M534.108 271.813C537.175 270.159 538.627 269.657 542.021 270.629C547.457 272.185 562.486 277.99 565.108 282.659C565.646 283.615 565.861 284.178 565.51 285.237C565.221 286.109 564.681 287.43 563.855 287.908C559.966 291.681 555.41 295.226 550.102 296.644C545.967 297.748 539.179 297.939 535.359 295.712C533.714 294.753 531.827 292.448 529.949 292.103C527.921 291.731 521.738 292.999 520.289 292.261C520.036 292.133 520.116 291.302 519.401 290.904C518.99 291.945 518.576 292.873 517.991 293.829C509.815 293.932 499.661 294.098 492.134 290.69C489.221 289.372 486.578 287.296 483.621 286.172C483.364 286.075 483.105 285.984 482.847 285.889L483.696 284.465C485.299 284.103 486.328 284.657 487.774 285.258L488.771 284.86C488.779 281.374 485.979 283.571 491.05 278.576C491.931 277.708 493.436 276.095 494.743 276.13C497.681 276.207 500.544 277.162 503.52 277.086C504.008 278.939 503.778 281.784 504.946 283.208L505.318 283.01C505.278 282.844 505.221 282.682 505.197 282.514C504.945 280.761 505.603 278.503 505.904 276.749C509.565 274.398 516.811 276.422 521.089 276.084L520.533 274.898L521.094 274.043C522.291 274.554 523.381 275.098 524.703 275.166C524.881 273.582 523.294 273.903 524.715 272.637L525.446 272.913C526.206 273.192 526.948 273.418 527.729 273.627L527.832 272.943L527.645 273.629L527.778 271.629C529.693 270.466 531.347 271.139 533.433 271.645L534.108 271.813Z"/><path d="M481.504 182.752C487.213 181.73 493.065 181.422 498.835 180.849C507.339 179.969 515.837 179.041 524.329 178.065C545.373 175.669 566.314 172.475 587.327 169.824C609.667 167.007 632.308 164.839 654.316 159.99C655.549 161.331 656.668 162.777 657.816 164.192C650.265 177.713 640.625 190.557 631.814 203.296C611.126 233.206 589.389 262.385 568.685 292.277C564.307 298.598 559.528 304.665 555.297 311.084C554.26 312.658 552.553 315.018 552.507 316.905C555.385 318.903 562.142 318.123 565.681 318.113L565.53 318.522C559.902 317.926 554.121 319.359 548.466 319.536C549.979 313.805 556.897 305.913 560.391 300.889L575.781 278.392C579.65 272.838 583.898 267.373 587.303 261.522C592.98 255.251 599.863 243.514 605.096 236.122C622.171 212.003 639.299 187.757 655.411 162.984C647.955 163.046 640.351 164.754 632.94 165.663C618.458 167.439 603.964 168.96 589.491 170.848C553.823 175.501 518.066 179.531 482.434 184.417C479.302 189.656 476.606 195.129 473.614 200.447L455.615 232.054C441.961 256.331 428.157 280.466 415.135 305.09C411.29 312.362 402.917 324.818 400.694 331.963C396.095 339.044 392.711 347.17 388.654 354.599C382.018 366.749 374.136 378.711 368.943 391.557C372.358 391.57 376.004 391.346 379.372 391.894L380.919 391.408C386.812 392.326 393.897 391.592 399.908 391.541L443.563 391.025C451.729 390.946 459.896 390.96 468.062 391.067C472.267 391.129 476.858 391.647 481.006 391.261C482.508 391.121 482.555 390.937 483.524 389.849C484.547 389.857 485.258 389.869 486.252 389.588C485.208 391.006 484.186 392.41 483.002 393.716C468.407 394.415 453.636 393.916 439.018 393.84C421.66 393.75 404.26 393.967 386.911 393.591C382.625 393.574 378.091 393.976 373.845 393.581C371.566 393.369 369.616 393.072 368.084 391.246C367.651 388.977 369.692 385.076 370.702 382.997C376.791 370.468 384.377 358.603 390.923 346.301C408.352 313.706 426.128 281.298 444.248 249.082C452.257 234.801 460.789 220.804 468.804 206.526C473.198 198.696 477.216 190.643 481.504 182.752Z"/><path fill="#25A3F8" d="M368.943 391.557C374.136 378.711 382.018 366.749 388.654 354.599C392.711 347.17 396.095 339.044 400.694 331.963C400.672 332.116 400.654 332.269 400.627 332.421C398.673 343.577 370.352 385.001 371.179 389.7C372.836 390.366 374.99 389.893 376.738 389.731C376.858 389.57 376.976 389.408 377.097 389.248C379.985 385.457 392.743 371.521 395.975 369.92C394.59 374.904 379.503 383.637 379.12 390.742L380.919 391.408L379.372 391.894C376.004 391.346 372.358 391.57 368.943 391.557Z"/><path fill="#2EDBF3" d="M459.566 296.433C462.494 292.076 494 254.506 495.805 253.303C495.37 256.822 489.605 260.875 487.578 263.968C484.429 268.771 479.436 272.378 476.739 277.387C475.67 279.372 474.386 280.806 474.155 283.126C474.141 283.269 474.134 283.413 474.123 283.557L472.744 282.146C467.325 285.196 465.631 293.769 459.825 296.311C459.738 296.349 459.652 296.392 459.566 296.433Z"/><path fill="#B94AF1" d="M459.124 530.905C461.864 531.791 464.466 532.63 467.358 532.871C478.518 533.804 490.268 532.746 501.511 532.636L560.675 532.583C564.668 532.585 574.355 531.692 577.475 533.289L577.51 534.896C572.617 541.12 567.262 547.753 561.399 553.088C557.095 560.637 534.579 580.384 527.235 587.391C522.076 592.312 517.228 597.557 512.157 602.568C506.198 608.456 500.004 614.104 494.046 619.986C473.894 639.881 454.414 660.469 434.558 680.654C421.464 693.964 408.016 706.927 394.772 720.084C388.413 726.401 353.705 765.354 347.747 766.535C347.129 766.658 346.615 766.662 345.997 766.69L344.694 766.584L344.083 765.713C344.732 761.271 365.826 723.116 369.852 715.105L413.332 627.446C429.261 595.728 445.874 563.84 459.124 530.905Z"/><path fill="#6159FD" d="M482.961 534.451C502.124 531.981 522.583 532.694 541.813 533.782C553.394 534.437 565.956 535.665 577.51 534.896C572.617 541.12 567.262 547.753 561.399 553.088C557.095 560.637 534.579 580.384 527.235 587.391C522.076 592.312 517.228 597.557 512.157 602.568C506.198 608.456 500.004 614.104 494.046 619.986C473.894 639.881 454.414 660.469 434.558 680.654C421.464 693.964 408.016 706.927 394.772 720.084C388.413 726.401 353.705 765.354 347.747 766.535C347.129 766.658 346.615 766.662 345.997 766.69C352.158 761.379 357.848 755.114 363.544 749.294C371.113 742.64 378.135 735.074 385.246 727.93C398.935 714.247 412.469 700.41 425.844 686.42C433.828 678.128 442.566 670.608 450.524 662.301C451.917 657.733 480.68 630.01 486.246 624.348C485.586 623.688 485.208 623.052 484.765 622.233C484.982 620.296 486.541 618.438 488.026 617.248C489.21 616.3 490.266 615.712 491.761 615.842C492.365 617.2 491.742 617.906 491.26 619.254C494.385 616.772 501.644 610.295 503.27 606.937C503.189 605.839 502.953 604.546 503.332 603.496C503.539 602.924 503.579 603.078 504.215 602.796C504.627 603.556 504.538 604.673 504.592 605.537C506.191 604.799 508.362 602.812 508.98 601.14C508.843 601.018 508.68 600.921 508.569 600.775C506.884 598.559 505.36 597.318 503.16 595.602C496.247 594.358 493.161 600.772 487.437 602.95C479.588 605.936 465.029 600.531 457.695 604.414C457.104 605.509 456.764 606.218 455.796 607.049C455.977 604.755 475.488 562.71 477.754 557.459C479.93 554.157 480.671 548.595 482.266 544.79C483.609 541.586 485.68 538.598 487.222 535.456C486.056 534.46 484.467 534.62 482.961 534.451Z"/><path fill="#240336" d="M519.113 593.565C522.92 590.641 526.316 586.855 529.76 583.504L549.489 564.33C553.369 560.56 557.178 556.47 561.399 553.088C557.095 560.637 534.579 580.384 527.235 587.391C522.076 592.312 517.228 597.557 512.157 602.568C506.198 608.456 500.004 614.104 494.046 619.986C473.894 639.881 454.414 660.469 434.558 680.654C421.464 693.964 408.016 706.927 394.772 720.084C388.413 726.401 353.705 765.354 347.747 766.535C347.129 766.658 346.615 766.662 345.997 766.69C352.158 761.379 357.848 755.114 363.544 749.294C371.113 742.64 378.135 735.074 385.246 727.93C398.935 714.247 412.469 700.41 425.844 686.42C433.828 678.128 442.566 670.608 450.524 662.301C454.205 659.416 457.536 655.267 460.805 651.891L481.537 630.58C489.547 622.446 497.562 614.144 505.716 606.168C510.097 601.882 514.942 598.064 519.113 593.565Z"/><path d="M459.124 530.905C461.864 531.791 464.466 532.63 467.358 532.871C478.518 533.804 490.268 532.746 501.511 532.636L560.675 532.583C564.668 532.585 574.355 531.692 577.475 533.289L577.51 534.896C565.956 535.665 553.394 534.437 541.813 533.782C522.583 532.694 502.124 531.981 482.961 534.451C484.467 534.62 486.056 534.46 487.222 535.456C485.68 538.598 483.609 541.586 482.266 544.79C480.671 548.595 479.93 554.157 477.754 557.459C475.545 555.237 458.292 558.304 453.317 555.657C452.445 555.194 451.642 554.817 450.735 554.431C431.994 593.473 412.944 632.365 393.586 671.104C386.197 685.8 379.253 700.725 371.86 715.4C367.193 724.661 361.63 733.852 357.69 743.414C357.688 743.693 357.697 743.971 357.683 744.249C357.499 747.918 352.124 752.976 353.8 755.835C357.827 755.447 359.695 749.21 363.544 749.294C357.848 755.114 352.158 761.379 345.997 766.69L344.694 766.584L344.083 765.713C344.732 761.271 365.826 723.116 369.852 715.105L413.332 627.446C429.261 595.728 445.874 563.84 459.124 530.905Z"/><path fill="#B94AF1" d="M460.245 534.115L482.961 534.451C484.467 534.62 486.056 534.46 487.222 535.456C485.68 538.598 483.609 541.586 482.266 544.79C480.671 548.595 479.93 554.157 477.754 557.459C475.545 555.237 458.292 558.304 453.317 555.657C452.445 555.194 451.642 554.817 450.735 554.431C454.019 547.722 457.059 540.874 460.245 534.115Z"/><path fill="#B94AF1" d="M344.694 766.584C346.153 763.462 348.272 760.518 349.938 757.484C352.499 752.822 354.74 747.837 357.69 743.414C357.688 743.693 357.697 743.971 357.683 744.249C357.499 747.918 352.124 752.976 353.8 755.835C357.827 755.447 359.695 749.21 363.544 749.294C357.848 755.114 352.158 761.379 345.997 766.69L344.694 766.584Z"/><defs><linearGradient id="gradient_2" gradientUnits="userSpaceOnUse" x1="735.51453" y1="389.41068" x2="617.64087" y2="522.75439"><stop offset="0" stop-color="#DBF0F3"/><stop offset="1" stop-color="#FEF9F9"/></linearGradient></defs><path fill="url(#gradient_2)" d="M686.942 378.448C693.222 377.826 722.668 377.182 727.367 378.724C728.483 379.091 728.529 379.515 729.042 380.498C728.143 381.038 728.525 380.96 727.999 381.03C726.353 387.49 725.418 394.262 724.284 400.835C722.258 413.261 720.153 425.675 717.969 438.074C716.074 448.623 714.089 459.155 712.016 469.67C711.022 474.892 709.724 480.225 709.153 485.497C707.303 494.563 706.11 503.751 704.305 512.831C704.477 514.394 704.531 516.136 705.064 517.62C704.601 519.962 704.296 522.209 703.074 524.297C702.728 524.512 702.427 524.827 702.036 524.943C699.917 525.577 671.448 525.3 666.94 525.145C665.732 524.256 664.227 522.682 662.68 522.789C659.59 523.004 656.051 525.784 653.051 526.765C643.771 529.798 622.381 528.531 613.772 522.925C612.988 522.414 611.964 521.714 611.355 520.995L611.215 518.467C602.409 509.932 598.945 501.422 598.469 489.128C597.43 484.718 598.706 480.231 597.336 475.878C597.592 465.164 602.638 448.738 607.65 439.24C613.908 427.38 625.606 416.544 638.545 412.555C652.445 408.269 666.477 410.438 679.107 417.203C680.545 409.304 682.134 401.428 683.674 393.549C684.651 388.543 685.357 383.287 686.942 378.448ZM656.684 497.623C661.578 497.015 667.541 495.517 670.624 491.331C673.796 487.025 679.299 456 679.618 449.733C673.231 444.894 666.607 441.567 658.326 442.199C652.897 442.809 647.62 443.938 644.025 448.476C637.941 456.156 633.526 477.583 634.951 487.106C635.433 490.33 636.804 492.726 639.464 494.651C644.157 498.047 651.123 498.021 656.684 497.623Z"/><path d="M686.942 378.448C693.222 377.826 722.668 377.182 727.367 378.724C728.483 379.091 728.529 379.515 729.042 380.498C728.143 381.038 728.525 380.96 727.999 381.03C725.105 379.389 693.613 380.473 687.655 380.458C685.766 394.021 682.739 407.396 680.634 420.927C669.849 413.268 658.864 410.96 645.754 413.126C631.87 415.419 620.902 422.718 612.759 434.143C602.901 447.974 598.301 472.308 598.469 489.128C597.43 484.718 598.706 480.231 597.336 475.878C597.592 465.164 602.638 448.738 607.65 439.24C613.908 427.38 625.606 416.544 638.545 412.555C652.445 408.269 666.477 410.438 679.107 417.203C680.545 409.304 682.134 401.428 683.674 393.549C684.651 388.543 685.357 383.287 686.942 378.448Z"/><path d="M704.305 512.831C704.477 514.394 704.531 516.136 705.064 517.62C704.601 519.962 704.296 522.209 703.074 524.297C702.728 524.512 702.427 524.827 702.036 524.943C699.917 525.577 671.448 525.3 666.94 525.145C665.732 524.256 664.227 522.682 662.68 522.789C659.59 523.004 656.051 525.784 653.051 526.765C643.771 529.798 622.381 528.531 613.772 522.925C612.988 522.414 611.964 521.714 611.355 520.995L611.215 518.467C617.045 523.07 623.867 525.695 631.245 526.435C642.433 527.557 656.273 525.791 665.163 518.279C665.935 517.626 665.47 517.797 666.484 517.767C667.093 519.468 666.703 521.298 666.505 523.056C678.422 522.994 690.34 523.128 702.253 523.459L704.305 512.831Z"/><defs><linearGradient id="gradient_3" gradientUnits="userSpaceOnUse" x1="674.50812" y1="418.78073" x2="638.19769" y2="523.13599"><stop offset="0" stop-color="#25A3F8"/><stop offset="1" stop-color="#516BF8"/></linearGradient></defs><path fill="url(#gradient_3)" d="M672.355 508.219C672.583 507.319 672.665 506.584 672.656 505.655C671.528 505.73 664.494 511.819 662.671 512.968C651.597 519.941 638.415 522.753 625.527 519.677C618.625 518.077 612.658 513.768 608.969 507.72C600.562 493.825 603.897 473.442 607.729 458.496C611.435 444.038 617.067 431.291 630.455 423.548C641.974 416.887 660.433 414.088 672.049 421.64C675.378 423.804 679.641 428.985 683.323 429.809C683.647 429.881 683.975 429.932 684.301 429.994L685.206 430.177C687.741 430.71 690.135 431.766 692.666 432.324C697.582 433.408 707.752 433.876 712.101 431.258C713.127 430.641 713.499 429.724 713.891 428.632L714.257 429.344C711.683 441.468 709.305 453.633 707.124 465.834C706.247 470.752 704.742 483.893 703.053 487.92C701.323 498 699.293 508.012 697.687 518.116C688.574 518.04 679.316 518.309 670.226 517.746C670.841 514.535 671.508 511.376 672.355 508.219ZM656.684 497.623C661.578 497.015 667.541 495.517 670.624 491.331C673.796 487.025 679.299 456 679.618 449.733C673.231 444.894 666.607 441.567 658.326 442.199C652.897 442.809 647.62 443.938 644.025 448.476C637.941 456.156 633.526 477.583 634.951 487.106C635.433 490.33 636.804 492.726 639.464 494.651C644.157 498.047 651.123 498.021 656.684 497.623Z"/><path fill="#516BF8" d="M672.355 508.219C672.52 510.173 672.434 512.109 673.603 513.706C678.459 515.981 687.202 515.753 692.34 514.39C699.865 512.394 699.262 494.087 702.804 488.31C702.885 488.179 702.97 488.05 703.053 487.92C701.323 498 699.293 508.012 697.687 518.116C688.574 518.04 679.316 518.309 670.226 517.746C670.841 514.535 671.508 511.376 672.355 508.219Z"/><path fill="#FEF9F9" d="M658.326 442.199C666.607 441.567 673.231 444.894 679.618 449.733C679.299 456 673.796 487.025 670.624 491.331C667.541 495.517 661.578 497.015 656.684 497.623C651.123 498.021 644.157 498.047 639.464 494.651C636.804 492.726 635.433 490.33 634.951 487.106C633.526 477.583 637.941 456.156 644.025 448.476C647.62 443.938 652.897 442.809 658.326 442.199ZM645.327 489.885C649.462 490.359 653.448 490.121 657.585 489.867C660.153 489.317 663.734 488.719 665.221 486.271C668.193 481.381 671.913 458.008 670.577 452.415C668.937 450.414 666.862 449.628 664.301 449.403C661.154 449.126 657.762 449.432 654.598 449.514C650.21 451.513 648.315 454.208 646.642 458.702C644.707 463.902 640.197 482.452 642.533 487.273C643.124 488.495 644.236 489.158 645.327 489.885Z"/><path d="M656.112 447.162C659.893 446.977 663.644 446.957 667.345 447.89C670.605 448.711 672.777 449.996 674.545 452.863C674.629 456.16 668.689 484.366 667.122 487.263C665.721 489.853 661.647 490.87 659.037 491.7C654.173 492.352 647.643 493.448 643.209 490.797C641.881 490.004 640.895 489.025 640.532 487.481C639.094 481.377 644.173 456.011 647.73 450.867C649.664 448.07 653 447.61 656.112 447.162ZM645.327 489.885C649.462 490.359 653.448 490.121 657.585 489.867C660.153 489.317 663.734 488.719 665.221 486.271C668.193 481.381 671.913 458.008 670.577 452.415C668.937 450.414 666.862 449.628 664.301 449.403C661.154 449.126 657.762 449.432 654.598 449.514C650.21 451.513 648.315 454.208 646.642 458.702C644.707 463.902 640.197 482.452 642.533 487.273C643.124 488.495 644.236 489.158 645.327 489.885Z"/><path fill="#2EDBF3" d="M684.301 429.994C684.982 424.178 688.971 388.784 692.542 386.418C696.33 383.908 715.619 384.396 720.727 384.856C720.214 397.718 717.851 417.066 714.257 429.344L713.891 428.632C713.499 429.724 713.127 430.641 712.101 431.258C707.752 433.876 697.582 433.408 692.666 432.324C690.135 431.766 687.741 430.71 685.206 430.177L684.301 429.994Z"/><path fill="#FEF9F9" d="M499.884 379.956L538.162 379.909C537.817 388.891 533.129 413.032 530.214 421.594C532.119 420.217 534.143 419.011 536.137 417.768L534.483 416.765C534.142 415.763 533.851 415.486 534.15 414.44L534.594 416.619C545.121 409.621 559.449 408.405 571.653 410.901C579.306 412.467 585.575 416.326 589.913 422.927C593.14 427.84 594.872 433.139 595.323 438.99C596.327 452.039 592.847 465.264 590.64 478.054C587.978 493.478 585.389 508.965 582.201 524.292C582.159 524.49 582.112 524.688 582.068 524.886C574.831 525.555 547.939 526.601 541.977 524.433C540.499 523.11 540.194 521.662 540.119 519.755C539.649 507.81 552.99 459.224 549.41 452.864C546.151 450.289 540.815 451.334 536.955 451.797C533.885 452.165 530.988 452.812 528.935 455.32C524.445 460.804 518.866 499.958 517.196 509.366C516.49 513.346 516.216 519.591 514.105 522.992C513.337 524.228 512.074 524.451 510.706 524.605C506.458 525.084 476.59 525.195 473.591 523.592L472.889 522.743C473.804 519.767 474.066 516.176 474.605 513.088L478.803 488.915L491.433 422.299C494.061 408.336 496.062 393.601 499.884 379.956Z"/><path d="M534.594 416.619C545.121 409.621 559.449 408.405 571.653 410.901C579.306 412.467 585.575 416.326 589.913 422.927C593.14 427.84 594.872 433.139 595.323 438.99C596.327 452.039 592.847 465.264 590.64 478.054C587.978 493.478 585.389 508.965 582.201 524.292C582.159 524.49 582.112 524.688 582.068 524.886C574.831 525.555 547.939 526.601 541.977 524.433C540.499 523.11 540.194 521.662 540.119 519.755C539.649 507.81 552.99 459.224 549.41 452.864C546.151 450.289 540.815 451.334 536.955 451.797C533.885 452.165 530.988 452.812 528.935 455.32C524.445 460.804 518.866 499.958 517.196 509.366C516.49 513.346 516.216 519.591 514.105 522.992C513.337 524.228 512.074 524.451 510.706 524.605C506.458 525.084 476.59 525.195 473.591 523.592C477.871 523.166 482.429 523.492 486.737 523.511C495.38 523.605 504.024 523.576 512.666 523.424C514.819 510.12 517.654 496.972 520.142 483.733C522 473.845 523.347 463.616 525.875 453.884C531.575 448.615 539.914 447.494 547.445 447.904C548.773 447.976 550.756 448.412 551.576 449.55C553.104 451.668 552.64 455.53 552.402 458.039C550.317 480.008 543.002 501.262 541.384 523.414C554.545 523.999 567.843 523.76 581.012 523.504C583.455 506.685 586.806 490.034 589.779 473.303C591.282 464.847 593.361 456.15 593.752 447.567C594.017 441.783 593.643 435.475 591.53 430.026C588.908 423.264 583.447 417.981 576.817 415.149C563.618 409.511 548.926 412.712 536.137 417.768L534.483 416.765C534.142 415.763 533.851 415.486 534.15 414.44L534.594 416.619Z"/><defs><linearGradient id="gradient_4" gradientUnits="userSpaceOnUse" x1="538.59564" y1="415.48395" x2="530.85498" y2="520.70441"><stop offset="0" stop-color="#25A3F8"/><stop offset="1" stop-color="#6159FD"/></linearGradient></defs><path fill="url(#gradient_4)" d="M502.9 385.05L531.933 384.585C531.058 395.734 529.015 406.653 527.054 417.65C526.327 421.72 525.892 426.494 524.544 430.369C524.767 430.306 524.993 430.249 525.214 430.18C528.895 429.046 532.952 424.625 536.391 422.558C546.028 416.767 564.519 414.572 574.719 419.409C580.551 422.175 584.669 426.982 586.745 433.076C588.399 437.934 588.704 443.205 588.406 448.294C588.179 452.16 580.156 497.274 579.16 499.377C578.276 505.617 577.293 511.861 576.567 518.121C570.24 518.295 551.944 519.481 546.725 518.088C549.225 508.528 549.968 498.075 551.656 488.312C553.33 478.623 556.001 469.056 556.936 459.252C557.255 455.909 558.037 450.244 556.343 447.248C555.202 445.228 553.102 443.879 550.888 443.303C544.721 441.701 529.847 444.539 524.489 448.101C522.647 449.326 521.471 450.766 520.677 452.832C517.063 462.229 516.15 473.762 514.469 483.735C512.471 495.32 510.384 506.889 508.209 518.442C498.317 518.453 488.425 518.402 478.533 518.291C482.122 501.405 484.732 484.491 487.859 467.533C489.205 460.234 491.075 453.034 492.373 445.728C493.817 437.596 494.096 429.311 496.111 421.266C497.747 409.154 501.085 397.19 502.9 385.05Z"/><path fill="#2EDBF3" d="M502.9 385.05L531.933 384.585C531.058 395.734 529.015 406.653 527.054 417.65C526.327 421.72 525.892 426.494 524.544 430.369L523.803 430.318L523.386 430.869C517.746 430.933 512.098 432.17 506.665 429.953C504.437 429.044 502.41 427.696 500.218 426.723C498.5 425.96 498.083 426.078 496.324 426.737C496.181 425.823 496.136 426.235 496.43 425.366C496.517 425.107 496.627 424.856 496.699 424.594C497.151 422.962 496.864 422.74 496.111 421.266C497.747 409.154 501.085 397.19 502.9 385.05Z"/><path fill="#516BF8" d="M546.725 518.088C553.968 516.725 561.732 518.697 569.019 516.744C577.938 514.352 574.717 506.161 578.652 500.117C578.815 499.866 578.991 499.624 579.16 499.377C578.276 505.617 577.293 511.861 576.567 518.121C570.24 518.295 551.944 519.481 546.725 518.088Z"/><path fill="#FEF9F9" d="M275.067 418.534C278.578 416.825 282.26 415.491 286.051 414.555C305.561 409.53 337.145 406.876 354.956 417.536C362.913 422.299 368.891 428.779 371.171 437.952L370.763 438.111C370.152 437.445 369.817 437.228 368.948 436.98C370.412 442.785 369.964 448.012 370.136 453.924C367.525 471.566 364.611 489.807 360.31 507.125C359.409 512.544 358.617 518.012 357.577 523.404C347.928 523.574 330.818 524.459 321.804 523.254L321.031 523.581L320.17 521.965C317.222 522.067 313.468 524.136 310.609 525.081C301.449 528.108 290.318 529.067 280.791 527.5C271.559 525.982 263.215 521.568 257.845 513.723C252.234 505.525 253.099 493.808 255 484.503C260.224 458.927 286.281 451.301 309.167 451.206C311.605 451.196 324.002 452.179 325.357 451.275L325.486 450.144C322.101 445.914 297.326 448.978 291.543 449.717C286.789 450.325 279.978 452.427 275.443 451.009C275.272 450.956 275.104 450.897 274.934 450.841C274.692 440.126 274.303 429.229 275.067 418.534ZM314.62 491.257C318.284 489.078 320.687 486.399 323.373 483.149C316.738 482.874 310.096 483.035 303.458 483.12C300.878 484.051 298.47 485.2 297.185 487.75C297.168 489.017 297.195 489.423 298.047 490.477C299.762 492.599 304.152 493.18 306.648 493.065C309.189 492.948 312.228 492.115 314.62 491.257Z"/><path d="M275.067 418.534C278.578 416.825 282.26 415.491 286.051 414.555C305.561 409.53 337.145 406.876 354.956 417.536C362.913 422.299 368.891 428.779 371.171 437.952L370.763 438.111C370.152 437.445 369.817 437.228 368.948 436.98C364.439 426.929 358.512 420.127 348.05 416.166C331.759 409.998 292.661 412.198 276.713 419.82C276.518 419.914 276.324 420.012 276.129 420.108C275.95 430.185 276.544 440.278 276.5 450.366C286.309 448.582 319.623 442.101 327.454 447.575C328.425 448.254 329.241 449.071 329.436 450.293C329.651 451.643 329.039 452.667 328.441 453.803C324.169 454.784 318.905 453.563 314.484 453.458C295.255 453.004 272.54 455.282 261.338 473.126C256.08 481.5 254.053 494.887 256.178 504.497C257.738 511.555 262.509 517.416 268.594 521.152C278.741 527.383 292.953 528.185 304.294 525.312C310.571 523.722 316.785 520.983 322.103 517.28C322.019 519.248 322.057 521.305 321.804 523.254L321.031 523.581L320.17 521.965C317.222 522.067 313.468 524.136 310.609 525.081C301.449 528.108 290.318 529.067 280.791 527.5C271.559 525.982 263.215 521.568 257.845 513.723C252.234 505.525 253.099 493.808 255 484.503C260.224 458.927 286.281 451.301 309.167 451.206C311.605 451.196 324.002 452.179 325.357 451.275L325.486 450.144C322.101 445.914 297.326 448.978 291.543 449.717C286.789 450.325 279.978 452.427 275.443 451.009C275.272 450.956 275.104 450.897 274.934 450.841C274.692 440.126 274.303 429.229 275.067 418.534Z"/><defs><linearGradient id="gradient_5" gradientUnits="userSpaceOnUse" x1="318.62665" y1="416.34073" x2="306.82773" y2="522.10443"><stop offset="0" stop-color="#25A3F8"/><stop offset="1" stop-color="#6159FD"/></linearGradient></defs><path fill="url(#gradient_5)" d="M315.39 417.708C321.946 416.801 329.623 416.891 336.158 417.721C345.247 418.876 353.928 422.727 359.518 430.228C370.261 444.644 362.276 467.314 359.367 483.286C357.205 494.998 355.281 506.754 353.597 518.544C344.589 518.433 335.593 518.082 326.581 518.053C327.217 513.847 327.787 509.632 328.291 505.408C319.782 511.265 312.591 517.164 302.331 519.706C291.476 522.396 279.836 521.997 270.138 516.135C269.272 515.49 268.428 514.816 267.606 514.115C263.144 510.314 261.089 505.278 260.688 499.515C260.007 489.743 262.087 479.69 268.689 472.205C280.452 458.869 300.579 458.887 317.038 459.177C321.27 459.252 325.668 459.941 329.879 459.598C331.569 459.46 332.752 459.012 333.787 457.613C335.601 455.159 336.047 451.462 335.636 448.515C335.258 445.81 333.39 443.644 331.208 442.128C321.905 435.662 292.456 441.7 281.519 444.082C281.738 436.915 281.467 429.708 281.342 422.538C292.748 421.201 303.918 418.689 315.39 417.708ZM314.62 491.257C318.284 489.078 320.687 486.399 323.373 483.149C316.738 482.874 310.096 483.035 303.458 483.12C300.878 484.051 298.47 485.2 297.185 487.75C297.168 489.017 297.195 489.423 298.047 490.477C299.762 492.599 304.152 493.18 306.648 493.065C309.189 492.948 312.228 492.115 314.62 491.257Z"/><path fill="#FEF9F9" d="M307.449 475.207C315.233 474.268 323.835 474.685 331.577 475.633C330.959 480.061 330.279 484.426 328.297 488.488C325.1 495.04 319.394 497.809 312.905 500.179C311.538 500.534 310.153 500.785 308.758 500.995C303.787 501.74 297.502 501.779 293.366 498.543C291.161 496.818 289.916 494.439 289.612 491.669C289.192 487.842 290.494 483.737 292.98 480.809C296.879 476.215 301.86 475.706 307.449 475.207ZM314.62 491.257C318.284 489.078 320.687 486.399 323.373 483.149C316.738 482.874 310.096 483.035 303.458 483.12C300.878 484.051 298.47 485.2 297.185 487.75C297.168 489.017 297.195 489.423 298.047 490.477C299.762 492.599 304.152 493.18 306.648 493.065C309.189 492.948 312.228 492.115 314.62 491.257Z"/><path d="M310.625 481.209C315.635 480.973 320.685 481.1 325.701 481.1C325.203 482.558 324.715 484.095 323.967 485.449C320.999 490.828 315.989 493.248 310.354 494.858C306.227 495.649 300.548 496.473 296.881 493.914C295.695 493.086 294.744 491.698 294.595 490.238C294.412 488.438 295.41 486.695 296.546 485.376C300.068 481.281 305.721 481.459 310.625 481.209ZM314.62 491.257C318.284 489.078 320.687 486.399 323.373 483.149C316.738 482.874 310.096 483.035 303.458 483.12C300.878 484.051 298.47 485.2 297.185 487.75C297.168 489.017 297.195 489.423 298.047 490.477C299.762 492.599 304.152 493.18 306.648 493.065C309.189 492.948 312.228 492.115 314.62 491.257Z"/><defs><linearGradient id="gradient_6" gradientUnits="userSpaceOnUse" x1="816.58124" y1="420.16422" x2="737.97937" y2="518.38489"><stop offset="0" stop-color="#DBF0F3"/><stop offset="1" stop-color="#FEF9F9"/></linearGradient></defs><path fill="url(#gradient_6)" d="M740.761 425.443C755.628 412.966 773 408.972 792.164 410.661C805.665 411.851 818.047 415.193 827.034 426.02C835.422 436.124 837.263 446.443 837.061 459.161L835.578 458.99L834.999 462.647C834.705 476.734 827.455 496.997 817.702 507.405C805.808 520.1 788.859 525.732 771.779 526.2C757.642 526.587 741.677 524.193 731.045 514.006C722.726 506.035 720.227 495.963 720.033 484.756C719.662 463.245 726.111 443.228 741.058 427.683L740.761 425.443ZM776.254 497.633C782.066 496.84 787.037 494.229 790.582 489.476C797.321 480.439 800.593 462.009 798.909 451.034C798.47 448.172 797.412 445.787 794.976 444.11C790.666 441.144 783.624 440.914 778.516 441.196C773.389 441.703 769.399 442.176 765.853 446.328C758.522 454.913 754.246 472.502 755.201 483.582C755.57 487.854 757.236 491.677 760.693 494.327C765.224 497.8 770.809 497.975 776.254 497.633Z"/><defs><linearGradient id="gradient_7" gradientUnits="userSpaceOnUse" x1="793.33661" y1="416.37012" x2="761.15771" y2="520.89673"><stop offset="0" stop-color="#2EDBF3"/><stop offset="1" stop-color="#516BF8"/></linearGradient></defs><path fill="url(#gradient_7)" d="M782.909 417.131C792.597 416.751 810.546 418.365 817.982 425.073C818.623 425.651 819.191 426.311 819.742 426.973C829.23 441.631 829.913 448.762 829.366 465.997C828.074 475.836 825.535 485.14 820.83 493.931C814.468 505.817 803.848 513.737 791.028 517.615C776.169 522.11 756.208 522.932 742.178 515.329C734.632 511.239 729.127 504.79 726.685 496.514C722.072 480.879 727.658 455.83 735.508 441.652C742.845 428.399 756.383 422.671 770.181 418.748C774.359 417.787 778.623 417.246 782.909 417.131ZM776.254 497.633C782.066 496.84 787.037 494.229 790.582 489.476C797.321 480.439 800.593 462.009 798.909 451.034C798.47 448.172 797.412 445.787 794.976 444.11C790.666 441.144 783.624 440.914 778.516 441.196C773.389 441.703 769.399 442.176 765.853 446.328C758.522 454.913 754.246 472.502 755.201 483.582C755.57 487.854 757.236 491.677 760.693 494.327C765.224 497.8 770.809 497.975 776.254 497.633Z"/><path fill="#2EDBF3" d="M770.181 418.748C774.359 417.787 778.623 417.246 782.909 417.131C783.032 417.272 783.142 417.426 783.278 417.555C785.068 419.252 787.167 418.687 788.53 421.302L788.276 421.899C787.421 421.939 786.927 421.711 786.333 422.407C783.284 425.971 784.107 429.256 778.308 429.902C777.322 430.012 776.595 430.114 775.662 429.727C775.69 429.492 775.72 429.259 775.744 429.024C775.851 427.966 775.83 428.38 775.745 427.246C774.653 426.604 773.625 426.118 772.452 425.635C771.304 425.163 770.674 424.846 769.907 423.819C769.853 423.175 769.575 422.533 770.054 422.027C770.783 421.257 771.866 420.864 772.812 420.42L773.216 419.68C772.223 418.929 771.381 418.908 770.181 418.748Z"/><path fill="#FEF9F9" d="M778.516 441.196C783.624 440.914 790.666 441.144 794.976 444.11C797.412 445.787 798.47 448.172 798.909 451.034C800.593 462.009 797.321 480.439 790.582 489.476C787.037 494.229 782.066 496.84 776.254 497.633C770.809 497.975 765.224 497.8 760.693 494.327C757.236 491.677 755.57 487.854 755.201 483.582C754.246 472.502 758.522 454.913 765.853 446.328C769.399 442.176 773.389 441.703 778.516 441.196ZM792.409 453.872C791.272 452.168 790.043 450.789 788.586 449.353C783.973 448.126 779.469 447.401 774.874 449.287C770.857 450.936 768.231 454.347 766.507 458.22L765.159 456.573C763.068 463.415 758.158 481.272 761.682 487.651C762.956 489.958 765.084 490.725 767.493 491.375C768.849 491.32 770.09 491.149 771.423 490.915C776.506 489.676 780.434 491.366 784.459 486.951C790.59 480.224 792.851 462.579 792.409 453.872Z"/><path d="M765.159 456.573C766.666 452.89 768.172 449.983 772.02 448.271C776.5 446.276 785.111 445.695 789.664 447.687C791.085 448.309 793.004 449.577 793.623 451.074C796.434 457.872 791.613 478.867 787.931 485.162C785.922 488.596 782.936 490.975 779.039 491.886C775.753 492.653 770.735 492.324 767.493 491.375C768.849 491.32 770.09 491.149 771.423 490.915C776.506 489.676 780.434 491.366 784.459 486.951C790.59 480.224 792.851 462.579 792.409 453.872C791.272 452.168 790.043 450.789 788.586 449.353C783.973 448.126 779.469 447.401 774.874 449.287C770.857 450.936 768.231 454.347 766.507 458.22L765.159 456.573Z"/><path d="M765.159 456.573L766.507 458.22C764.556 464.881 760.252 480.653 763.546 486.913C764.383 488.504 765.944 489.96 767.725 490.379C768.924 490.661 770.202 490.777 771.423 490.915C770.09 491.149 768.849 491.32 767.493 491.375C765.084 490.725 762.956 489.958 761.682 487.651C758.158 481.272 763.068 463.415 765.159 456.573Z"/><path d="M740.761 425.443C755.628 412.966 773 408.972 792.164 410.661C805.665 411.851 818.047 415.193 827.034 426.02C835.422 436.124 837.263 446.443 837.061 459.161L835.578 458.99C835.695 447.358 834.511 436.811 826.183 427.941C825.769 427.14 826.003 427.48 825.333 426.722C816.054 416.226 803.069 413.265 789.545 412.483C772.031 411.472 754.353 415.882 741.058 427.683L740.761 425.443Z"/><path fill="#99DCE6" d="M819.742 426.973C819.875 427.055 820.01 427.134 820.142 427.218C820.724 427.592 821.363 428.003 821.848 428.5C823.509 430.203 824.301 432.947 826.153 434.476C827.673 435.729 829.736 436.163 831.312 437.486C830.253 434.559 825.959 430.879 826.183 427.941C834.511 436.811 835.695 447.358 835.578 458.99L834.999 462.647C834.962 462.509 834.922 462.372 834.887 462.233C834.026 458.826 835.126 455.379 834.532 451.888L834.163 451.678C830.759 455.927 832.645 462.111 829.366 465.997C829.913 448.762 829.23 441.631 819.742 426.973Z"/><path fill="#FEF9F9" d="M178.808 381.661C187.176 381.609 195.615 381.423 203.97 381.996C204.114 388.37 200.754 413.999 197.22 418.24C195.415 420.407 140.432 419.393 134.142 419.367C133.17 419.363 132.265 419.332 131.306 419.157L130.711 418.639C130.399 418.963 129.968 419.513 129.592 419.746C128.449 425.968 127.769 432.337 126.736 438.592C145.727 437.634 167.755 438.145 186.796 439.14C186.326 450.691 183.508 462.541 181.26 473.871C160.87 474.634 140.241 473.998 119.826 473.964C118.088 490.614 114.435 507.435 111.23 523.875C97.9547 524.293 84.5762 523.861 71.294 523.664C72.8998 511.925 75.4629 500.247 77.5691 488.581L87.9615 429.1C90.7263 413.668 93.9019 398.288 95.9893 382.747C107.042 382.198 118.198 383.323 129.232 382.56C133.602 381.669 138.91 382.163 143.381 382.193L167.028 382.353C170.78 382.362 175.208 382.691 178.808 381.661Z"/><path d="M178.808 381.661C187.176 381.609 195.615 381.423 203.97 381.996C204.114 388.37 200.754 413.999 197.22 418.24C195.415 420.407 140.432 419.393 134.142 419.367C133.17 419.363 132.265 419.332 131.306 419.157L130.711 418.639C130.399 418.963 129.968 419.513 129.592 419.746C129.627 419.139 129.773 418.513 129.875 417.913C131.836 416.776 189.592 417.545 196.649 417.474C199.296 406.231 201.417 394.14 202.444 382.633C178.066 382.173 153.611 383.633 129.232 382.56C133.602 381.669 138.91 382.163 143.381 382.193L167.028 382.353C170.78 382.362 175.208 382.691 178.808 381.661Z"/><path fill="#516BF8" d="M91.8254 437.291L93.2426 437.06C93.6811 436.991 94.1056 436.839 94.547 436.792C95.9425 436.642 97.5803 437.487 98.8768 437.953C107.809 441.167 111.643 440.176 120.72 437.525L121.344 437.686C121.017 439.793 120.907 441.972 120.705 444.098C140.654 443.859 160.605 443.816 180.554 443.971C179.323 452.168 178.148 460.324 176.777 468.507C156.442 468.117 136.036 468.504 115.693 468.507C113.081 485.26 108.914 501.716 106.576 518.495C96.8097 518.609 87.0427 518.633 77.276 518.567C78.5958 509.144 80.7368 499.926 82.4991 490.585C85.9542 472.883 89.0636 455.115 91.8254 437.291Z"/><path fill="#2EDBF3" d="M100.769 387.54L176.711 387.373C183.347 387.351 190.011 386.974 196.638 387.055C195.783 395.06 195.166 403.693 192.589 411.341C186.95 412.411 180.911 412.111 175.187 412.111L146.113 412.035C139.598 412.003 132.878 411.641 126.409 412.443C124.064 420.459 122.373 429.4 121.344 437.686L120.72 437.525C111.643 440.176 107.809 441.167 98.8768 437.953C97.5803 437.487 95.9425 436.642 94.547 436.792C94.1056 436.839 93.6811 436.991 93.2426 437.06L91.8254 437.291C93.3504 427.793 95.3838 418.451 97.1202 409.001C98.4308 401.868 99.3643 394.651 100.769 387.54Z"/><path fill="#FEF9F9" d="M451.087 520.365C448.554 522.114 445.525 523.563 442.649 524.65C437.292 526.676 430.537 528.209 424.824 528.567C411.752 529.385 386.01 526.102 374.333 520.761C371.988 519.689 368.876 517.992 368.022 515.358C366.458 510.534 373.756 490.35 376.436 485.287C377.906 484.259 378.993 484.082 380.745 484.263C384.221 484.621 387.923 486.305 391.275 487.354C398.769 489.7 413.593 494.185 421.102 492.224C422.501 491.859 423.738 491.579 424.528 490.354C422.893 488.43 406.625 485.903 402.951 484.697C393.975 481.751 384.679 476.42 380.434 467.593C376.6 459.621 377.005 446.703 379.909 438.405C383.873 427.08 393.021 420.153 403.551 415.167C421.136 406.843 450.62 410.554 468.148 416.897C470.352 417.695 475.789 419.685 476.619 421.949C477.412 424.113 476.924 426.173 476.133 428.247C473.422 435.357 472.76 445.859 468.175 451.806C466.417 452.772 464.58 452.703 462.643 452.39C458.972 451.796 455.295 450.152 451.717 449.1C444.822 447.072 437.496 446.213 430.318 446.093C427.941 446.053 426.574 446.054 424.818 447.753L424.982 448.491C429.064 450.642 436.758 450.903 441.387 451.791C445.828 452.648 450.157 454.005 454.292 455.836C462.797 459.688 467.578 464.653 470.943 473.436L469.101 475.162C471.446 485.345 469.999 496.241 464.369 505.179C461.026 510.383 456.582 514.791 451.351 518.092L451.087 520.365Z"/><path d="M451.087 520.365C448.554 522.114 445.525 523.563 442.649 524.65C437.292 526.676 430.537 528.209 424.824 528.567C411.752 529.385 386.01 526.102 374.333 520.761C371.988 519.689 368.876 517.992 368.022 515.358C366.458 510.534 373.756 490.35 376.436 485.287C377.906 484.259 378.993 484.082 380.745 484.263C384.221 484.621 387.923 486.305 391.275 487.354C398.769 489.7 413.593 494.185 421.102 492.224C422.501 491.859 423.738 491.579 424.528 490.354C422.893 488.43 406.625 485.903 402.951 484.697C393.975 481.751 384.679 476.42 380.434 467.593C376.6 459.621 377.005 446.703 379.909 438.405C383.873 427.08 393.021 420.153 403.551 415.167C421.136 406.843 450.62 410.554 468.148 416.897C470.352 417.695 475.789 419.685 476.619 421.949C477.412 424.113 476.924 426.173 476.133 428.247C473.422 435.357 472.76 445.859 468.175 451.806C466.417 452.772 464.58 452.703 462.643 452.39C458.972 451.796 455.295 450.152 451.717 449.1C444.822 447.072 437.496 446.213 430.318 446.093C427.941 446.053 426.574 446.054 424.818 447.753L424.982 448.491C429.064 450.642 436.758 450.903 441.387 451.791C445.828 452.648 450.157 454.005 454.292 455.836C462.797 459.688 467.578 464.653 470.943 473.436L469.101 475.162C465.481 466.282 460.532 461.463 451.703 457.785C447.844 456.202 443.89 454.859 439.865 453.765C434.295 452.288 424.224 451.93 420.091 448.035C419.94 447.285 419.654 446.998 420.171 446.338C421.809 444.244 425.47 444.009 427.929 443.878C436.12 443.441 444.676 444.699 452.488 447.147C457.288 448.652 461.874 450.411 466.861 451.262C467.814 446.952 474.96 424.996 474.892 423.799C474.872 423.434 474.575 422.862 474.409 422.597C470.804 416.823 446.123 413.327 439.449 412.755C422.942 411.34 405.555 413.521 392.55 424.652C384.868 431.227 381.134 440.102 380.486 450.089C379.963 458.151 380.782 465.87 386.452 472.134C398.057 484.956 427.017 485.022 430.401 490.54C430.118 491.609 430.028 491.779 429.027 492.386C422.003 496.647 402.821 492.628 395.263 490.524C389.458 488.908 383.754 486.658 377.868 485.407C376.226 490.231 368.187 511.568 369.842 515.186C371.866 519.61 384.092 522.223 388.484 523.176C410.144 527.878 431.438 529.048 451.351 518.092L451.087 520.365Z"/><defs><linearGradient id="gradient_8" gradientUnits="userSpaceOnUse" x1="417.97571" y1="420.88165" x2="419.65018" y2="519.59076"><stop offset="0" stop-color="#25A3F8"/><stop offset="1" stop-color="#6159FD"/></linearGradient></defs><path fill="url(#gradient_8)" d="M407.421 421.686C408.799 421.635 411.474 421.056 412.477 422.054C413.231 422.806 413.891 424.296 414.464 425.219C417.438 430.01 420.778 433.116 426.183 434.993C426.888 435.238 427.515 435.561 428.165 435.924C427.69 436.567 427.943 436.398 427.559 436.608C425.539 437.271 423.133 437.801 421.302 438.87L421.394 439.448C420.313 439.874 419.255 440.36 418.227 440.902C416.396 441.855 414.759 443.189 414.203 445.269C410.417 459.425 452.139 455.968 460.999 470.876C464.707 477.115 465 488.423 463.134 495.3C460.884 503.59 454.788 509.798 447.472 513.935C425.256 526.496 397.717 520.016 374.613 513.506C376.905 506.011 378.954 498.425 382.57 491.436C394.42 496.452 413.635 501.357 426.311 498.688C429.576 498 434.984 496.031 436.471 492.662C437.011 491.438 436.388 489.273 435.896 488.093C432.498 479.94 417.079 479.328 409.418 477.652C405.649 476.827 401.844 475.717 398.321 474.128C392.747 471.614 387.987 467.58 385.891 461.693C383.346 454.547 384.618 444.994 388.054 438.281C391.846 430.872 399.446 424.164 407.421 421.686Z"/><path fill="#25A3F8" d="M407.421 421.686C422.863 415.177 441.515 416.983 457.383 420.829C460.2 421.512 463.394 422.069 466.073 423.156C467.162 423.598 467.395 423.807 467.971 424.769C468.248 431.102 463.982 437.897 462.649 444.134C452.049 441.289 442.19 438.602 431.147 438.345C427.817 438.493 424.673 438.85 421.394 439.448L421.302 438.87C423.133 437.801 425.539 437.271 427.559 436.608C427.943 436.398 427.69 436.567 428.165 435.924C427.515 435.561 426.888 435.238 426.183 434.993C420.778 433.116 417.438 430.01 414.464 425.219C413.891 424.296 413.231 422.806 412.477 422.054C411.474 421.056 408.799 421.635 407.421 421.686Z"/><path fill="#FEF9F9" d="M860.439 399.772C860.776 396.802 861.371 390.486 863.594 388.372C865.862 386.215 897.846 386.414 902.254 387.161C903.24 387.328 904.322 387.356 904.824 388.362C906.957 392.632 903.986 402.094 902.999 406.763C902.863 408.64 902.675 410.459 902.336 412.311C907.325 413.112 918.167 411.839 921.906 414.108C921.389 415.248 920.925 416.474 920.318 417.565C918.169 421.166 916.898 437.052 916.414 441.864C916.343 444.147 916.269 446.349 916.862 448.574L916.476 449.453C909.435 450.419 901.355 449.453 894.197 449.432C892.904 457.507 891.559 465.572 890.161 473.629C889.334 478.339 888.099 483.196 887.87 487.974C889.327 489.418 892.086 489.229 894.056 489.222C898.405 489.208 903.859 488.364 908.013 489.824L906.87 491.587L906.485 491.052C905.189 496.363 904.495 502.413 904.135 507.869C903.828 509.891 903.476 511.917 903.26 513.951C902.779 516.519 902.14 519.048 901.522 521.585C892.909 526.2 879.314 526.224 869.79 525.267C862.216 524.506 854.568 522.376 849.649 516.115C846.833 512.531 845.352 508.22 844.893 503.717C843.366 488.75 851.228 463.115 853.412 447.067C849.208 447.188 844.99 447.105 840.784 447.089C841.478 437.533 844.97 425.363 846.25 414.989C850.957 414.975 855.606 415.084 860.306 415.356C860.639 412.182 860.91 409.001 861.119 405.816C860.817 404.913 860.837 405.265 860.884 404.391C860.981 402.604 860.958 401.496 860.439 399.772Z"/><path d="M860.439 399.772C860.776 396.802 861.371 390.486 863.594 388.372C865.862 386.215 897.846 386.414 902.254 387.161C903.24 387.328 904.322 387.356 904.824 388.362C906.957 392.632 903.986 402.094 902.999 406.763C902.863 408.64 902.675 410.459 902.336 412.311C907.325 413.112 918.167 411.839 921.906 414.108C921.389 415.248 920.925 416.474 920.318 417.565C920.298 416.803 920.244 416.045 920.194 415.284C917.418 413.261 910.288 414.655 906.741 414.563C904.257 414.943 901.689 414.89 899.18 414.958C900.196 410.456 901.13 405.935 901.98 401.398C902.581 397.312 903.265 393.219 903.567 389.098C890.484 389.078 877.402 389.529 864.314 389.556C863.001 393.802 862.629 402.874 861.119 405.816C860.817 404.913 860.837 405.265 860.884 404.391C860.981 402.604 860.958 401.496 860.439 399.772Z"/><path d="M916.414 441.864C916.343 444.147 916.269 446.349 916.862 448.574L916.476 449.453C909.435 450.419 901.355 449.453 894.197 449.432C892.904 457.507 891.559 465.572 890.161 473.629C889.334 478.339 888.099 483.196 887.87 487.974C889.327 489.418 892.086 489.229 894.056 489.222C898.405 489.208 903.859 488.364 908.013 489.824L906.87 491.587L906.485 491.052C901.451 489.97 889.754 492.766 886.183 490.13C885.561 482.679 888.388 474.247 889.768 466.948C890.971 460.498 891.968 454.011 892.757 447.498L915.49 447.918L916.414 441.864Z"/><path fill="#25A3F8" d="M868.542 394.29C877.889 393.76 887.257 393.851 896.614 394.034C896.235 402.56 894.115 410.917 893.45 419.435C900.019 419.2 906.624 418.838 913.197 418.808C913.695 426.413 912.5 434.522 911.998 442.149L888.204 441.655C887.121 449.418 886.293 457.414 884.557 465.055C884.048 472.35 881.865 479.735 880.584 486.931C880.181 489.195 879.83 491.705 881.476 493.601C884.789 497.417 895.482 496.073 900.153 495.987C899.119 500.96 899.012 506.16 898.216 511.184C897.832 513.608 897.302 516.544 895.108 517.985C889.61 521.598 871.665 520.353 865.271 519.267C860.211 518.408 855.451 516.453 852.511 512.034C846.74 503.361 850.91 489.751 852.566 480.345C853.641 473.962 854.779 467.59 855.98 461.229C857.015 454.793 858.848 448.441 859.727 442.01C855.61 441.617 851.537 441.499 847.404 441.449C848.072 434.169 848.286 426.709 851.571 420.032C854.632 420.001 860.707 420.648 862.997 418.597C866.841 411.81 866.634 401.854 868.542 394.29Z"/><path fill="#2EDBF3" d="M868.542 394.29C877.889 393.76 887.257 393.851 896.614 394.034C896.235 402.56 894.115 410.917 893.45 419.435C900.019 419.2 906.624 418.838 913.197 418.808C913.695 426.413 912.5 434.522 911.998 442.149L888.204 441.655C887.121 449.418 886.293 457.414 884.557 465.055L884.023 463.479C884.728 459.817 885.854 455.125 885.698 451.46C883.174 450.065 877.678 451.12 874.649 450.559C870.882 449.862 865.357 445.42 861.71 446.009C857.452 446.696 858.836 457.498 856.434 460.681C856.291 460.87 856.131 461.046 855.98 461.229C857.015 454.793 858.848 448.441 859.727 442.01C855.61 441.617 851.537 441.499 847.404 441.449C848.072 434.169 848.286 426.709 851.571 420.032C854.632 420.001 860.707 420.648 862.997 418.597C866.841 411.81 866.634 401.854 868.542 394.29Z"/><path fill="#FEF9F9" d="M215.744 378.609C221.201 378.386 254.254 377.482 256.648 379.556C257.66 388.549 252.493 410.447 250.702 420.503C246.651 443.249 242.192 466.037 238.725 488.869C241.365 489.27 246.596 488.646 248.71 490.126C249.312 490.547 249.261 491.247 249.409 491.914C249 493.611 248.922 495.084 248.931 496.825L248.614 497.333C247.864 504.16 246.734 510.78 245.196 517.479L245.925 521.556C245.546 522.955 245.049 523.838 243.909 524.739C238.705 528.853 222.564 527.266 216.177 526.298C209.349 525.263 201.385 523.869 197.156 517.764C194.395 513.781 193.161 507.717 193.182 502.895C193.23 492.356 196.109 481.389 197.897 471.023C203.234 440.092 210.094 409.468 215.744 378.609Z"/><path d="M215.744 378.609C221.201 378.386 254.254 377.482 256.648 379.556C257.66 388.549 252.493 410.447 250.702 420.503C246.651 443.249 242.192 466.037 238.725 488.869C241.365 489.27 246.596 488.646 248.71 490.126C249.312 490.547 249.261 491.247 249.409 491.914C249 493.611 248.922 495.084 248.931 496.825L248.614 497.333C248.557 495.56 248.762 493.781 247.61 492.321C244.323 490.32 240.158 491.177 236.428 490.987C237.52 480.413 240.24 469.824 242.177 459.364C244.397 447.367 246.12 435.282 248.285 423.275C250.89 408.827 253.914 394.512 255.696 379.929C242.683 379.927 229.484 379.745 216.486 380.271C211.119 404.167 207.514 428.656 203.053 452.753C200.309 467.578 195.209 486.048 194.917 500.819C194.811 506.173 195.824 511.806 198.861 516.319C202.385 521.556 209.259 523.857 215.231 524.833C224.411 526.334 234.806 525.608 243.799 523.37L245.196 517.479L245.925 521.556C245.546 522.955 245.049 523.838 243.909 524.739C238.705 528.853 222.564 527.266 216.177 526.298C209.349 525.263 201.385 523.869 197.156 517.764C194.395 513.781 193.161 507.717 193.182 502.895C193.23 492.356 196.109 481.389 197.897 471.023C203.234 440.092 210.094 409.468 215.744 378.609Z"/><path fill="#516BF8" d="M210.987 438.741C212.195 429.579 216.222 392.199 220.726 385.702C224.713 383.452 243.362 384.037 248.518 384.308C248.574 394.162 246.635 404.13 245.031 413.83L239.681 445.499C236.791 459.354 231.33 482.295 231.641 495.826C235.609 495.621 239.582 495.525 243.555 495.537C242.878 503.26 242.611 514.047 236.738 519.69C229.265 519.579 221.356 519.668 213.97 518.521C209.928 517.893 206.366 516.589 203.981 513.097C201.63 509.653 200.833 505.289 200.696 501.188C200.327 490.166 203.28 478.821 205.365 468.038C207.155 458.257 209.029 448.49 210.987 438.741Z"/><path fill="#2EDBF3" d="M210.987 438.741C212.195 429.579 216.222 392.199 220.726 385.702C224.713 383.452 243.362 384.037 248.518 384.308C248.574 394.162 246.635 404.13 245.031 413.83L239.681 445.499C239.596 444.853 239.531 444.213 239.458 443.566C239.216 441.421 240.122 433.095 241.017 431.253C241.093 431.096 241.202 430.957 241.295 430.81C236.813 430.348 232.428 431.385 227.895 430.453C224.696 429.796 218.942 427.085 215.876 427.599C211.833 428.277 213.552 435.274 211.587 437.964C211.394 438.228 211.187 438.482 210.987 438.741Z"/><path fill="#B94AF1" d="M591.828 549.996C592.633 550.254 593.372 550.191 593.722 551.036C595.135 554.452 594.416 560.369 594.342 564.104C594.274 577.674 594.332 591.245 594.513 604.815L599.57 603.818C610.872 599.285 622.624 593.45 634.698 591.658C635.703 596.176 636.454 600.663 636.677 605.292C637.62 624.831 636.896 644.709 636.867 664.279C636.848 677.336 637.637 690.506 637.299 703.535C637.259 705.077 637.216 706.172 636.463 707.532C635.25 708.02 635.533 707.909 634.453 707.478C633.704 706.442 633.294 705.595 632.971 704.35C632.157 701.201 631.932 697.87 631.227 694.671C629.507 686.859 627.379 679.013 625.997 671.142C621.139 655.179 619.387 638.328 614.228 622.503C609.384 621.035 581.962 632.97 575.2 634.675C573.767 635.037 573.659 635.22 572.401 634.45C572.546 627.348 575.103 619.162 576.633 612.158C578.592 603.355 580.374 594.514 581.979 585.639C583.34 575.624 585.877 562.755 588.272 552.942C588.889 551.28 590.365 550.733 591.828 549.996Z"/><defs><linearGradient id="gradient_9" gradientUnits="userSpaceOnUse" x1="636.91077" y1="666.39404" x2="627.00476" y2="665.90381"><stop offset="0" stop-color="#7932B1"/><stop offset="1" stop-color="#B94AF1"/></linearGradient></defs><path fill="url(#gradient_9)" d="M634.698 591.658C635.703 596.176 636.454 600.663 636.677 605.292C637.62 624.831 636.896 644.709 636.867 664.279C636.848 677.336 637.637 690.506 637.299 703.535C637.259 705.077 637.216 706.172 636.463 707.532C635.25 708.02 635.533 707.909 634.453 707.478C633.704 706.442 633.294 705.595 632.971 704.35C632.157 701.201 631.932 697.87 631.227 694.671C629.507 686.859 627.379 679.013 625.997 671.142C626.309 667.566 626.89 667.125 628.877 664.27C630.528 661.899 630.845 659.943 630.292 657.117C630.07 655.982 629.849 654.916 629.775 653.759C629.698 652.572 629.921 653.024 629.437 652.359C629.123 653.502 629.003 655.11 628.072 655.843C626.193 651.831 627.028 646.456 626.864 642.046C626.599 634.884 625.765 615.812 623.29 609.616C623.237 609.483 623.179 609.351 623.123 609.219L623.582 608.775C624.754 609.679 624.625 611.241 624.98 612.643C626.726 619.524 626.445 641.276 628.38 645.137C629.033 646.438 628.983 647.44 628.925 648.878C628.89 649.748 628.765 649.302 629.278 650.088C630.04 648.805 629.917 647.526 629.816 646.03C629.613 643.026 629.743 641.21 630.505 638.229C631.505 634.32 632.612 630.377 633.042 626.352C634.271 614.857 632.835 603.133 634.698 591.658Z"/><path fill="#240336" d="M591.828 549.996C592.633 550.254 593.372 550.191 593.722 551.036C595.135 554.452 594.416 560.369 594.342 564.104C594.274 577.674 594.332 591.245 594.513 604.815L599.57 603.818C597.1 605.243 594.482 606.267 592.012 607.785C592.213 597.651 591.405 587.359 590.986 577.228C591.917 572.363 591.506 562.292 590.879 557.156C590.584 554.735 590.126 554.388 588.272 552.942C588.889 551.28 590.365 550.733 591.828 549.996Z"/><path d="M591.828 549.996C592.633 550.254 593.372 550.191 593.722 551.036C595.135 554.452 594.416 560.369 594.342 564.104C592.77 560.069 591.392 554.327 591.828 549.996Z"/><path fill="#7932B1" d="M588.272 552.942C590.126 554.388 590.584 554.735 590.879 557.156C591.506 562.292 591.917 572.363 590.986 577.228L590.29 576.504C590.119 574.095 591.012 570.373 590.021 568.339C588.725 567.699 588.429 567.749 586.969 567.863C586.648 569.601 586.635 571.336 586.557 573.096C586.377 577.12 583.922 582.135 581.979 585.639C583.34 575.624 585.877 562.755 588.272 552.942Z"/><path fill="#2EDBF3" d="M282.581 279.173C281.783 278.106 281.158 277.396 281.084 276.005C281.478 275.364 281.62 274.879 282.319 274.522C284.968 273.168 289.1 272.823 292.042 272.48C301.693 271.353 311.443 271.318 321.13 270.702C328.439 270.237 335.893 269.049 343.2 268.991C344.675 268.979 346.007 269.218 347.422 269.611C349.512 270.874 351.442 272.265 353.163 274.003C358.064 278.954 377.437 301.355 378.696 306.812C378.984 308.062 378.743 308.602 378.058 309.618C376.879 310.041 375.927 309.999 374.793 309.463C373.076 308.651 371.514 307.352 370.074 306.129C367.934 304.418 365.933 302.55 363.906 300.708C359.47 296.922 351.54 288.531 346.732 286.416C344.569 285.465 342.281 285.334 339.953 285.534C336.053 285.868 332.187 286.801 328.309 287.342C324.097 287.93 320.25 287.83 316.087 288.962C315.982 288.99 315.874 289.012 315.768 289.037C323.128 295.355 338.914 310.518 344.521 318.097C336.346 321.734 275.097 330.857 265.452 330.212C265.139 329.592 264.976 329.663 265.22 329.124C266.932 325.327 282.571 317.511 287.112 315.171C293.947 311.446 301.165 308.466 308.332 305.455C299.22 297.128 290.761 288.412 282.581 279.173Z"/><path d="M310.662 287.099C322.552 287.023 334.602 284.016 346.463 282.957C349.203 284.653 351.724 287.042 354.184 289.131C357.436 292.485 361.198 295.378 364.862 298.269L363.906 300.708C359.47 296.922 351.54 288.531 346.732 286.416C344.569 285.465 342.281 285.334 339.953 285.534C336.053 285.868 332.187 286.801 328.309 287.342C324.097 287.93 320.25 287.83 316.087 288.962C315.982 288.99 315.874 289.012 315.768 289.037C323.128 295.355 338.914 310.518 344.521 318.097C336.346 321.734 275.097 330.857 265.452 330.212C267.366 330.251 269.606 330.567 271.075 329.254C294.252 325.588 317.371 321.569 340.425 317.199C335.452 311.561 330.225 306.152 324.761 300.988C320.193 296.645 314.14 292.304 310.662 287.099Z"/><defs><linearGradient id="gradient_10" gradientUnits="userSpaceOnUse" x1="320.40811" y1="284.75983" x2="306.15067" y2="261.005"><stop offset="0" stop-color="black"/><stop offset="1" stop-color="#03343A"/></linearGradient></defs><path fill="url(#gradient_10)" d="M282.581 279.173C281.783 278.106 281.158 277.396 281.084 276.005C281.478 275.364 281.62 274.879 282.319 274.522C284.968 273.168 289.1 272.823 292.042 272.48C301.693 271.353 311.443 271.318 321.13 270.702C328.439 270.237 335.893 269.049 343.2 268.991C344.675 268.979 346.007 269.218 347.422 269.611L347.335 270.329C336.721 274.589 315.841 274.048 303.717 275.346C301.201 275.616 297.778 275.573 295.436 276.41C292.674 276.486 285.921 276.007 283.757 277.688L283.74 278.156L282.581 279.173Z"/><path fill="#03343A" d="M347.335 270.329L347.422 269.611C349.512 270.874 351.442 272.265 353.163 274.003C358.064 278.954 377.437 301.355 378.696 306.812C378.984 308.062 378.743 308.602 378.058 309.618C376.879 310.041 375.927 309.999 374.793 309.463C373.076 308.651 371.514 307.352 370.074 306.129C367.934 304.418 365.933 302.55 363.906 300.708L364.862 298.269C361.198 295.378 357.436 292.485 354.184 289.131C358.173 289.492 365.379 298.797 370.224 300.465C368.861 295.574 358.786 288.864 358.943 284.419C356.116 279.874 351.381 273.841 347.335 270.329Z"/><path fill="#99DCE6" d="M358.943 284.419C364.032 289.014 374.909 302.957 378.212 308.776C375.505 306.721 372.829 304.626 370.185 302.49L371.03 304.754L370.074 306.129C367.934 304.418 365.933 302.55 363.906 300.708L364.862 298.269C361.198 295.378 357.436 292.485 354.184 289.131C358.173 289.492 365.379 298.797 370.224 300.465C368.861 295.574 358.786 288.864 358.943 284.419Z"/><path fill="#03343A" d="M364.862 298.269L370.185 302.49L371.03 304.754L370.074 306.129C367.934 304.418 365.933 302.55 363.906 300.708L364.862 298.269Z"/><path d="M282.581 279.173L283.74 278.156C287.052 281.278 290.298 284.672 293.846 287.515C299.281 294.438 306.692 299.807 312.449 306.502C305.178 309.449 298.116 312.509 291.252 316.34L287.112 315.171C293.947 311.446 301.165 308.466 308.332 305.455C299.22 297.128 290.761 288.412 282.581 279.173Z"/><defs><linearGradient id="gradient_11" gradientUnits="userSpaceOnUse" x1="277.66861" y1="316.76981" x2="278.83139" y2="326.23019"><stop offset="0" stop-color="#240336"/><stop offset="1" stop-color="#03343A"/></linearGradient></defs><path fill="url(#gradient_11)" d="M265.452 330.212C265.139 329.592 264.976 329.663 265.22 329.124C266.932 325.327 282.571 317.511 287.112 315.171L291.252 316.34C288.194 318.143 271.573 327.203 270.57 328.944L271.075 329.254C269.606 330.567 267.366 330.251 265.452 330.212Z"/><path fill="#99DCE6" d="M283.74 278.156L283.757 277.688C285.921 276.007 292.674 276.486 295.436 276.41C293.154 278.103 290.076 276.655 288.116 279.19C288.68 282.545 292.71 284.179 293.846 287.515C290.298 284.672 287.052 281.278 283.74 278.156Z"/><path fill="#2EDBF3" d="M726.168 214.646C732.011 211.186 737.952 207.893 743.982 204.771L747.011 205.302C747.746 205.302 748.307 205.17 748.962 205.527L751.035 206.699C746.768 211.935 740.198 215.978 735.038 220.351C729.781 224.806 724.726 229.996 719.148 234.004C714.811 238.343 707.448 245.548 702.085 248.323C700.303 250.112 695.855 254.03 693.362 254.229C692.032 254.335 691.306 253.887 690.391 252.985C688.001 250.626 685.772 240.273 682.808 236.018C675.472 240.028 668.327 243.55 660.472 246.431C660.522 252.229 661.754 268.772 659.692 273.273C657.473 274.894 654.668 275.557 652.079 276.406L640.067 280.437C633.169 283.053 615.734 291.349 609.329 288.689C608.713 287.826 608.505 287.487 608.847 286.354C609.407 284.501 610.951 283.536 612.549 282.644C612.486 282.887 612.427 283.131 612.359 283.372C612.122 284.216 611.821 284.924 611.445 285.71L612.38 286.587C613.504 285.21 614.413 284.825 616.067 284.226C617.301 282.543 617.945 280.863 618.674 278.917C626.267 275.457 633.138 270.688 640.839 267.288C642.786 266.241 644.372 265.107 646.041 263.66L646.077 237.662L652.026 234.653C654.135 232.943 657.741 231.475 660.343 230.62C667.091 227.925 682.193 218.077 688.609 218.675C692.95 221.286 695.44 226.892 698.295 230.975C702.156 229.14 705.764 226.627 709.441 224.441L726.168 214.646Z"/><path d="M683.841 233.873C687.695 239.426 690.129 246.212 692.694 252.442C694.864 250.985 696.885 249.243 698.934 247.619C699.985 248.06 701.541 247.803 702.085 248.323C700.303 250.112 695.855 254.03 693.362 254.229C692.032 254.335 691.306 253.887 690.391 252.985C688.001 250.626 685.772 240.273 682.808 236.018C675.472 240.028 668.327 243.55 660.472 246.431C660.522 252.229 661.754 268.772 659.692 273.273C657.473 274.894 654.668 275.557 652.079 276.406L652.545 273.249C654.481 272.874 656.403 272.188 658.295 271.627C658.361 262.913 658.927 253.858 658.18 245.188C666.945 241.914 675.09 237.18 683.841 233.873Z"/><path d="M698.295 230.975C702.156 229.14 705.764 226.627 709.441 224.441L726.168 214.646L725.171 217.544C715.625 222.391 707.167 229.195 697.497 233.823C694.433 229.413 691.105 224.583 688.874 219.678L662.758 231.777L660.343 230.62C667.091 227.925 682.193 218.077 688.609 218.675C692.95 221.286 695.44 226.892 698.295 230.975Z"/><path d="M652.026 234.653C654.135 232.943 657.741 231.475 660.343 230.62L662.758 231.777C658.851 233.81 654.596 236.515 650.401 237.821C649.64 238.142 648.43 238.393 648.066 239.164C646.114 243.297 648.525 260.629 648.991 265.909L643.583 268.105L640.839 267.288C642.786 266.241 644.372 265.107 646.041 263.66L646.077 237.662L652.026 234.653Z"/><path d="M720.818 229.458C726.186 224.12 732.436 219.245 738.367 214.524C741.908 211.705 746.075 209.022 748.962 205.527L751.035 206.699C746.768 211.935 740.198 215.978 735.038 220.351C729.781 224.806 724.726 229.996 719.148 234.004C719.525 232.413 720.183 230.958 720.818 229.458Z"/><path fill="#03343A" d="M622.282 283.635C628.728 283.784 633.349 279.664 640.067 280.437C633.169 283.053 615.734 291.349 609.329 288.689C608.713 287.826 608.505 287.487 608.847 286.354C609.407 284.501 610.951 283.536 612.549 282.644C612.486 282.887 612.427 283.131 612.359 283.372C612.122 284.216 611.821 284.924 611.445 285.71L612.38 286.587C615.783 285.95 618.911 284.441 622.282 283.635Z"/><path fill="#03343A" d="M618.674 278.917C626.267 275.457 633.138 270.688 640.839 267.288L643.583 268.105C640.961 269.615 635.601 271.953 633.859 274.245C628.036 277.381 622.117 281.704 616.067 284.226C617.301 282.543 617.945 280.863 618.674 278.917Z"/><path fill="#03343A" d="M698.934 247.619C706.148 241.469 713.443 235.415 720.818 229.458C720.183 230.958 719.525 232.413 719.148 234.004C714.811 238.343 707.448 245.548 702.085 248.323C701.541 247.803 699.985 248.06 698.934 247.619Z"/><path fill="#03343A" d="M634.447 279.173C640.553 277.479 646.427 274.989 652.545 273.249L652.079 276.406L640.067 280.437C633.349 279.664 628.728 283.784 622.282 283.635C626.274 282.001 630.385 280.625 634.447 279.173Z"/><path fill="#03343A" d="M726.168 214.646C732.011 211.186 737.952 207.893 743.982 204.771L747.011 205.302C740.017 209.876 732.963 214.431 725.171 217.544L726.168 214.646Z"/><path fill="#99DCE6" d="M616.067 284.226C622.117 281.704 628.036 277.381 633.859 274.245L633.943 275.01C631.252 277.041 628.171 278.31 625.365 280.153L625.379 281.391C628.239 281.816 631.227 277.716 634.047 278.63L634.447 279.173C630.385 280.625 626.274 282.001 622.282 283.635C618.911 284.441 615.783 285.95 612.38 286.587C613.504 285.21 614.413 284.825 616.067 284.226Z"/><path fill="#B94AF1" d="M371.472 577.443C379.663 569.51 395.719 549.26 406.926 548.147L407.892 548.52C408.269 549.835 407.898 550.844 407.219 552.009C404.054 557.443 396.21 565.762 392.032 571.021C382.744 582.714 373.794 595.316 363.845 606.427C363.179 607.17 362.313 607.429 361.4 607.751L360.293 607.507C356.426 605.48 357.652 599.299 355.161 596.204L354.019 596.548C352.337 598.183 350.415 599.52 348.534 600.915C342.538 606.224 336.506 611.604 330.843 617.267C323.807 624.347 315.985 630.641 308.479 637.214C305.754 639.744 301.813 642.473 298.411 644.032C297.215 644.58 296.559 644.959 295.263 644.515C295.179 644.047 295.142 644.005 295.21 643.456C295.476 641.278 297.402 638.707 298.686 636.945C303.938 629.739 310.246 623.189 315.875 616.264C319.383 611.949 324.263 604.409 328.119 600.96C330.893 597.044 357.334 562.406 358.717 561.695C364.008 563.015 363.971 575.128 368.235 578.913C369.815 578.93 370.216 578.353 371.472 577.443Z"/><path fill="#240336" d="M371.472 577.443C379.663 569.51 395.719 549.26 406.926 548.147L407.892 548.52C408.269 549.835 407.898 550.844 407.219 552.009C404.054 557.443 396.21 565.762 392.032 571.021C382.744 582.714 373.794 595.316 363.845 606.427C363.179 607.17 362.313 607.429 361.4 607.751C368.587 598.659 375.131 589.031 382.286 579.9C385.22 576.156 401.536 557.635 401.93 554.733L401.264 554.416C397.435 556.2 393.223 561.268 390 564.094C383.718 569.602 377.47 575.168 370.601 579.944L371.472 577.443Z"/><path fill="#240336" d="M328.119 600.96C330.981 599.028 332.431 596.506 335.822 595.349C328.139 605.431 320.506 615.591 312.399 625.338C308.599 629.908 303.513 633.845 300.383 638.863L300.527 639.588C301.424 639.474 301.88 639.337 302.626 638.822C304.621 637.923 306.221 637.119 308.479 637.214C305.754 639.744 301.813 642.473 298.411 644.032C297.215 644.58 296.559 644.959 295.263 644.515C295.179 644.047 295.142 644.005 295.21 643.456C295.476 641.278 297.402 638.707 298.686 636.945C303.938 629.739 310.246 623.189 315.875 616.264C319.383 611.949 324.263 604.409 328.119 600.96Z"/><path fill="#240336" d="M328.119 600.96C330.893 597.044 357.334 562.406 358.717 561.695C364.008 563.015 363.971 575.128 368.235 578.913C369.815 578.93 370.216 578.353 371.472 577.443L370.601 579.944C369.346 581.075 368.073 582.025 366.674 582.972C364.399 576.373 362.125 569.614 359.084 563.323C351.994 574.36 344.24 585.274 335.822 595.349C332.431 596.506 330.981 599.028 328.119 600.96Z"/><path fill="#240336" d="M330.663 614.156L330.843 617.267C323.807 624.347 315.985 630.641 308.479 637.214C306.221 637.119 304.621 637.923 302.626 638.822C311.551 630.138 321.295 622.352 330.663 614.156Z"/><path fill="#240336" d="M330.663 614.156C336.234 608.868 341.793 603.583 347.572 598.522L348.534 600.915C342.538 606.224 336.506 611.604 330.843 617.267L330.663 614.156Z"/><path d="M352.516 594.702L356.497 591.603C357.618 596.927 359.348 602.163 360.293 607.507C356.426 605.48 357.652 599.299 355.161 596.204L354.019 596.548C353.504 596.435 353.109 596.219 352.638 595.989L352.516 594.702Z"/><path fill="#240336" d="M347.572 598.522L352.516 594.702L352.638 595.989C353.109 596.219 353.504 596.435 354.019 596.548C352.337 598.183 350.415 599.52 348.534 600.915L347.572 598.522Z"/><path fill="#2EDBF3" d="M355.296 158.054C355.922 158.24 356.583 158.334 357.173 158.613C358.991 159.47 366.824 169.138 368.871 171.391C379.863 183.48 391.646 194.795 402.791 206.739C405.075 209.256 406.928 210.861 407.314 214.408L406.897 215.453C401.307 216.626 390.429 203.971 386.256 210.45C384.844 212.643 385.63 216.457 386.461 218.698C389.304 226.368 394.322 233.107 398.521 240.064C402.238 246.222 405.683 252.539 409.365 258.716C410.901 261.292 412.849 263.837 414.131 266.527C414.628 267.569 414.742 268.352 414.546 269.478C413.554 270.144 413.655 269.99 412.559 269.914C412.133 269.795 411.704 269.682 411.287 269.533C406.254 267.738 367.433 223.88 364.435 217.262C364.208 211.271 370.08 207.246 373.568 202.908C369.9 194.022 365.022 185.293 360.837 176.602C358.857 172.576 356.763 168.071 355.486 163.768C354.863 161.671 354.248 160.018 355.296 158.054Z"/><path fill="#03343A" d="M393.375 199.99C395.472 202.067 397.739 204.884 400.108 206.575L402.791 206.739C405.075 209.256 406.928 210.861 407.314 214.408L406.897 215.453C401.307 216.626 390.429 203.971 386.256 210.45C384.844 212.643 385.63 216.457 386.461 218.698C389.304 226.368 394.322 233.107 398.521 240.064C402.238 246.222 405.683 252.539 409.365 258.716C410.901 261.292 412.849 263.837 414.131 266.527C414.628 267.569 414.742 268.352 414.546 269.478C413.554 270.144 413.655 269.99 412.559 269.914C412.079 269.115 412.278 269.359 411.765 268.768C411.058 267.953 410.475 267.413 410.209 266.326C410.653 262.63 383.424 223.071 380.213 215.385C381.886 211.745 384.32 207.455 387.197 204.642C388.244 203.618 388.754 203.335 390.202 203.297C391.386 202.314 392.351 201.135 393.375 199.99Z"/><path fill="#99DCE6" d="M393.375 199.99C395.472 202.067 397.739 204.884 400.108 206.575C402.541 209.244 404.825 211.993 407.08 214.814C400.926 211.885 395.597 207.405 390.202 203.297C391.386 202.314 392.351 201.135 393.375 199.99Z"/><path d="M360.837 176.602C362.154 177.319 363.447 177.97 364.58 178.967C366.016 182.01 367.323 185.473 369.138 188.288C370.716 192.273 375.695 200.155 374.321 204.302C373.128 207.906 364.222 213.199 366.118 217.201C367.239 219.569 405.139 261.583 410.209 266.326C410.475 267.413 411.058 267.953 411.765 268.768C412.278 269.359 412.079 269.115 412.559 269.914C412.133 269.795 411.704 269.682 411.287 269.533C406.254 267.738 367.433 223.88 364.435 217.262C364.208 211.271 370.08 207.246 373.568 202.908C369.9 194.022 365.022 185.293 360.837 176.602Z"/><path d="M355.296 158.054C355.922 158.24 356.583 158.334 357.173 158.613C358.991 159.47 366.824 169.138 368.871 171.391C379.863 183.48 391.646 194.795 402.791 206.739L400.108 206.575C397.739 204.884 395.472 202.067 393.375 199.99C386.866 193.653 381.326 186.308 374.63 180.176C373.246 178.013 370.618 175.828 368.836 173.915C364.753 169.52 360.738 165.062 356.792 160.543L355.296 158.054Z"/><path d="M360.837 176.602C358.857 172.576 356.763 168.071 355.486 163.768C354.863 161.671 354.248 160.018 355.296 158.054L356.792 160.543C356.737 166.138 362.487 173.608 364.58 178.967C363.447 177.97 362.154 177.319 360.837 176.602Z"/><path fill="#2EDBF3" d="M741.226 318.797C744.403 318.026 747.635 317.025 750.924 316.988L751.385 317.508C748.863 321.274 743.649 321.649 741.348 325.478L742.046 326.184C751.314 328.635 760.727 330.705 770.091 332.766C776.761 334.359 794.864 337.568 799.465 340.954C800.105 342.341 800.107 343.031 800.007 344.504C799.118 345.317 799.027 345.223 797.918 345.46C789.467 347.218 780.036 347.586 771.416 347.696C762.584 348.983 750.541 348.866 741.113 349.654C732.018 350.414 720.024 352.703 711.341 352.554L710.684 352.006L711.063 349.943C716.513 343.041 737.652 342.214 740.198 337.941C738.796 334.58 729.719 333.042 726.576 330.841C724.646 329.489 724.577 328.357 724.178 326.184C727.769 321.971 736.055 320.374 741.226 318.797Z"/><path d="M711.063 349.943C716.513 343.041 737.652 342.214 740.198 337.941C738.796 334.58 729.719 333.042 726.576 330.841C724.646 329.489 724.577 328.357 724.178 326.184L725.472 327.256C731.402 331.989 739.226 333.568 746.198 336.326C742.888 338.698 739.638 340.843 736.049 342.769C735.89 342.963 735.74 343.166 735.572 343.353C733.871 345.248 728.362 345.556 727.395 347.589C729.869 348.141 731.854 347.971 734.26 347.224C735.193 347.794 734.896 347.455 735.307 348.079C730.231 349.837 717.33 350.918 711.807 350.647L711.063 349.943Z"/><path fill="#25A3F8" d="M711.063 349.943C719.399 348.497 727.943 345.29 736.049 342.769C735.89 342.963 735.74 343.166 735.572 343.353C733.871 345.248 728.362 345.556 727.395 347.589C729.869 348.141 731.854 347.971 734.26 347.224C735.193 347.794 734.896 347.455 735.307 348.079C730.231 349.837 717.33 350.918 711.807 350.647L711.063 349.943Z"/><path fill="#03343A" d="M741.226 318.797C744.403 318.026 747.635 317.025 750.924 316.988L751.385 317.508C748.863 321.274 743.649 321.649 741.348 325.478L742.046 326.184L744.419 329.433C739.461 327.896 734.69 326.628 729.531 325.934C728.023 326.201 726.761 326.356 725.472 327.256L724.178 326.184C727.769 321.971 736.055 320.374 741.226 318.797Z"/><path fill="#03343A" d="M740.039 321.656C740.681 322.015 741.419 322.151 741.613 322.915C741.849 323.85 741.574 324.573 741.348 325.478L742.046 326.184L744.419 329.433C739.461 327.896 734.69 326.628 729.531 325.934C732.93 324.265 736.614 323.462 740.039 321.656Z"/><path d="M735.307 348.079C746.523 347.812 758.039 346.289 769.225 345.295L770.966 345.845L771.416 347.696C762.584 348.983 750.541 348.866 741.113 349.654C732.018 350.414 720.024 352.703 711.341 352.554L710.684 352.006L711.063 349.943L711.807 350.647C717.33 350.918 730.231 349.837 735.307 348.079Z"/><path fill="#03343A" d="M770.091 332.766C776.761 334.359 794.864 337.568 799.465 340.954C800.105 342.341 800.107 343.031 800.007 344.504C799.118 345.317 799.027 345.223 797.918 345.46C798.525 344.724 798.807 344.23 799.066 343.311C798.347 342.555 797.923 342.449 796.908 342.258C787.304 339.504 777.423 337.488 767.691 335.222L770.091 332.766Z"/><path fill="#03343A" d="M796.908 342.258C797.923 342.449 798.347 342.555 799.066 343.311C798.807 344.23 798.525 344.724 797.918 345.46C789.467 347.218 780.036 347.586 771.416 347.696L770.966 345.845L769.225 345.295C775.808 344.457 791.668 344.122 796.908 342.258Z"/><path d="M742.046 326.184C751.314 328.635 760.727 330.705 770.091 332.766L767.691 335.222C760.018 333.055 752.135 331.503 744.419 329.433L742.046 326.184Z"/><path d="M95.0607 381.241C122.843 382.432 150.986 381.571 178.808 381.661C175.208 382.691 170.78 382.362 167.028 382.353L143.381 382.193C138.91 382.163 133.602 381.669 129.232 382.56C118.198 383.323 107.042 382.198 95.9893 382.747C93.9019 398.288 90.7263 413.668 87.9615 429.1L77.5691 488.581C75.4629 500.247 72.8998 511.925 71.294 523.664C84.5762 523.861 97.9547 524.293 111.23 523.875C114.435 507.435 118.088 490.614 119.826 473.964C140.241 473.998 160.87 474.634 181.26 473.871C183.508 462.541 186.326 450.691 186.796 439.14C167.755 438.145 145.727 437.634 126.736 438.592C127.769 432.337 128.449 425.968 129.592 419.746C129.968 419.513 130.399 418.963 130.711 418.639L131.306 419.157C132.034 424.477 129.92 431.932 129.317 437.369C138.854 437.411 182.083 436.126 187.705 438.369C188.063 439.139 188.316 439.796 188.401 440.65C188.774 444.376 184.748 466.824 183.412 471.036C182.895 472.667 182.159 473.915 181.092 475.238C175.531 477.071 131.226 476.031 122.437 476.057C120.865 482.983 113.506 523.213 111.239 524.96C106.94 526.06 74.4352 526.113 70.9106 524.639C70.1775 523.005 70.4001 521.29 70.6225 519.564C71.7206 511.046 73.6923 502.592 75.1498 494.124L86.1988 432.44C88.3558 420.938 90.4407 409.422 92.4535 397.893C93.393 392.351 93.9093 386.744 95.0607 381.241Z"/><path d="M837.061 459.161C837.122 460.273 837.142 461.386 837.123 462.499C836.73 479.333 828.687 499.957 816.328 511.605C802.382 524.749 784.564 528.701 765.829 528.079C752.342 527.631 737.402 523.444 727.948 513.272C717.896 502.456 717.864 491.599 718.322 477.645C718.984 457.463 725.872 439.368 740.761 425.443L741.058 427.683C726.111 443.228 719.662 463.245 720.033 484.756C720.227 495.963 722.726 506.035 731.045 514.006C741.677 524.193 757.642 526.587 771.779 526.2C788.859 525.732 805.808 520.1 817.702 507.405C827.455 496.997 834.705 476.734 834.999 462.647L835.578 458.99L837.061 459.161Z"/><path d="M472.889 522.743C472.2 522.058 472.024 521.467 471.937 520.511C471.4 514.587 475.645 498.565 476.89 491.492L489.896 421.54C492.007 410.361 493.56 398.957 496.11 387.882C496.632 385.613 497.607 380.86 499.248 379.232C501.24 377.254 533.539 377.578 537.648 378.281C538.321 378.397 539.487 378.612 539.846 379.237C541.627 382.337 535.579 410.787 534.594 416.619L534.15 414.44C533.851 415.486 534.142 415.763 534.483 416.765L536.137 417.768C534.143 419.011 532.119 420.217 530.214 421.594C533.129 413.032 537.817 388.891 538.162 379.909L499.884 379.956C496.062 393.601 494.061 408.336 491.433 422.299L478.803 488.915L474.605 513.088C474.066 516.176 473.804 519.767 472.889 522.743Z"/><path d="M857.887 413.494C859.143 409.006 859.608 404.353 860.439 399.772C860.958 401.496 860.981 402.604 860.884 404.391C860.837 405.265 860.817 404.913 861.119 405.816C860.91 409.001 860.639 412.182 860.306 415.356C855.606 415.084 850.957 414.975 846.25 414.989C844.97 425.363 841.478 437.533 840.784 447.089C844.99 447.105 849.208 447.188 853.412 447.067C851.228 463.115 843.366 488.75 844.893 503.717C845.352 508.22 846.833 512.531 849.649 516.115C854.568 522.376 862.216 524.506 869.79 525.267C879.314 526.224 892.909 526.2 901.522 521.585C902.14 519.048 902.779 516.519 903.26 513.951C903.576 516.03 903.727 518.141 904.064 520.21C903.902 521.243 903.709 522.127 902.9 522.87C898.955 526.493 883.874 528.014 878.534 528.022C868.893 528.034 856.428 526.322 849.442 518.994C846.355 515.756 843.45 510.301 843.502 505.682C844.376 501.277 843.873 496.371 843.477 491.925C843.81 477.497 850.536 463.471 851.673 449.166C847.724 448.945 843.78 448.648 839.843 448.276C840.382 436.736 843.354 424.617 845.256 413.201C849.449 413.122 853.692 413.379 857.887 413.494Z"/><path d="M729.042 380.498C729.644 382.147 729.635 383.479 729.402 385.218C727.573 398.89 724.098 412.465 721.81 426.087L714.629 466.767C713.303 474.297 712.505 482.464 710.328 489.777C710.165 488.19 710.165 486.811 709.153 485.497C709.724 480.225 711.022 474.892 712.016 469.67C714.089 459.155 716.074 448.623 717.969 438.074C720.153 425.675 722.258 413.261 724.284 400.835C725.418 394.262 726.353 387.49 727.999 381.03C728.525 380.96 728.143 381.038 729.042 380.498Z"/><path d="M470.943 473.436C473.816 483.99 472.461 495.248 467.166 504.819C463.437 511.458 457.848 516.862 451.087 520.365L451.351 518.092C456.582 514.791 461.026 510.383 464.369 505.179C469.999 496.241 471.446 485.345 469.101 475.162L470.943 473.436Z"/><path d="M370.136 453.924C371.028 455.458 371.122 456.844 371.301 458.587C370.426 466.995 368.558 475.464 367.072 483.794C365.471 492.769 364.25 502.32 361.514 511.015L360.709 510.489L360.31 507.125C364.611 489.807 367.525 471.566 370.136 453.924Z"/><path d="M597.336 475.878C598.706 480.231 597.43 484.718 598.469 489.128C598.945 501.422 602.409 509.932 611.215 518.467L611.355 520.995C608.282 518.895 605.463 515.474 603.346 512.416C596.096 501.951 595.197 488.093 597.336 475.878Z"/><path d="M360.31 507.125L360.709 510.489L361.514 511.015C361.438 515.41 360.471 520.114 359.235 524.324C353.687 525.024 324.545 526.035 321.547 524.357L321.031 523.581L321.804 523.254C330.818 524.459 347.928 523.574 357.577 523.404C358.617 518.012 359.409 512.544 360.31 507.125Z"/><path d="M921.906 414.108C921.369 421.295 919.668 442.579 916.862 448.574C916.269 446.349 916.343 444.147 916.414 441.864C916.898 437.052 918.169 421.166 920.318 417.565C920.925 416.474 921.389 415.248 921.906 414.108Z"/><path d="M709.153 485.497C710.165 486.811 710.165 488.19 710.328 489.777C710.566 494.68 706.252 511.672 705.064 517.62C704.531 516.136 704.477 514.394 704.305 512.831C706.11 503.751 707.303 494.563 709.153 485.497Z"/><path d="M249.409 491.914C252.195 500.4 248.916 513.395 245.925 521.556L245.196 517.479C246.734 510.78 247.864 504.16 248.614 497.333L248.931 496.825C248.922 495.084 249 493.611 249.409 491.914Z"/><path d="M908.013 489.824C909.524 496.457 906.6 505.425 905.36 512.143C905.182 510.506 905.118 509.262 904.135 507.869C904.495 502.413 905.189 496.363 906.485 491.052L906.87 491.587L908.013 489.824Z"/><path d="M368.948 436.98C369.817 437.228 370.152 437.445 370.763 438.111L371.171 437.952C373.851 443.374 372.573 452.864 371.301 458.587C371.122 456.844 371.028 455.458 370.136 453.924C369.964 448.012 370.412 442.785 368.948 436.98Z"/><path fill="#03343A" d="M743.982 204.771C746.392 203.593 750.82 200.784 753.593 201.401C753.737 201.433 753.869 201.503 754.007 201.555C754.25 202.636 754.168 202.703 753.62 203.625C752.947 204.757 751.927 205.736 751.035 206.699L748.962 205.527C748.307 205.17 747.746 205.302 747.011 205.302L743.982 204.771Z"/><path fill="#03343A" d="M618.674 278.917C617.945 280.863 617.301 282.543 616.067 284.226C614.413 284.825 613.504 285.21 612.38 286.587L611.445 285.71C611.821 284.924 612.122 284.216 612.359 283.372C612.427 283.131 612.486 282.887 612.549 282.644C614.471 281.195 616.575 280.086 618.674 278.917Z"/><path d="M904.135 507.869C905.118 509.262 905.182 510.506 905.36 512.143C905.207 514.86 904.578 517.541 904.064 520.21C903.727 518.141 903.576 516.03 903.26 513.951C903.476 511.917 903.828 509.891 904.135 507.869Z"/><path d="M843.477 491.925C843.873 496.371 844.376 501.277 843.502 505.682C841.932 501.094 842.792 496.589 843.477 491.925Z"/></svg>